M48
; DRILL file {KiCad (5.1.6)-1} date 01/23/21 20:41:09
; FORMAT={-:-/ absolute / metric / decimal}
; #@! TF.CreationDate,2021-01-23T20:41:09+01:00
; #@! TF.GenerationSoftware,Kicad,Pcbnew,(5.1.6)-1
; #@! TF.FileFunction,Plated,1,2,PTH
FMAT,2
METRIC
T1C0.600
T2C0.800
T3C1.000
T4C4.300
%
G90
G05
T1
X67.895Y-132.08
X68.84Y-129.8
X68.84Y-134.36
X71.12Y-128.855
X71.12Y-135.305
X73.4Y-129.8
X73.4Y-134.36
X74.345Y-132.08
X111.075Y-132.08
X112.02Y-129.8
X112.02Y-134.36
X114.3Y-128.855
X114.3Y-135.305
X116.58Y-129.8
X116.58Y-134.36
X117.525Y-132.08
X111.075Y-91.44
X112.02Y-89.16
X112.02Y-93.72
X114.3Y-88.215
X114.3Y-94.665
X116.58Y-89.16
X116.58Y-93.72
X117.525Y-91.44
X67.895Y-91.44
X68.84Y-89.16
X68.84Y-93.72
X71.12Y-88.215
X71.12Y-94.665
X73.4Y-89.16
X73.4Y-93.72
X74.345Y-91.44
T2
X104.14Y-127.0
X104.14Y-134.62
X78.74Y-106.68
X78.74Y-114.3
X106.68Y-96.52
X106.68Y-104.14
X91.44Y-99.06
X91.44Y-101.6
X91.44Y-104.14
X91.44Y-106.68
X91.44Y-109.22
X91.44Y-111.76
X91.44Y-114.3
X91.44Y-116.84
X91.44Y-119.38
X91.44Y-121.92
X91.44Y-124.46
X91.44Y-127.0
X91.44Y-129.54
X91.44Y-132.08
X99.06Y-99.06
X99.06Y-101.6
X99.06Y-104.14
X99.06Y-106.68
X99.06Y-109.22
X99.06Y-111.76
X99.06Y-114.3
X99.06Y-116.84
X99.06Y-119.38
X99.06Y-121.92
X99.06Y-124.46
X99.06Y-127.0
X99.06Y-129.54
X99.06Y-132.08
X86.36Y-111.94
X86.36Y-116.84
X83.86Y-106.68
X86.36Y-106.68
X78.74Y-116.84
X78.74Y-124.46
X83.86Y-121.92
X86.36Y-121.92
T3
X71.12Y-111.76
X71.12Y-114.3
X71.12Y-116.84
X71.12Y-119.38
X71.12Y-121.92
X71.12Y-124.46
X112.268Y-120.904
X112.268Y-123.444
X86.36Y-96.52
X86.36Y-99.06
X86.36Y-101.6
X104.14Y-120.904
X104.14Y-123.444
X104.14Y-113.03
X111.74Y-113.03
X111.76Y-99.06
X111.76Y-101.6
X93.98Y-88.9
X96.52Y-88.9
T4
X71.12Y-132.08
X114.3Y-132.08
X114.3Y-91.44
X71.12Y-91.44
T0
M30
