%TF.GenerationSoftware,KiCad,Pcbnew,(5.1.6)-1*%
%TF.CreationDate,2021-01-23T20:41:05+01:00*%
%TF.ProjectId,Ricevitore-Trasmettitore_ATMega328,52696365-7669-4746-9f72-652d54726173,rev?*%
%TF.SameCoordinates,Original*%
%TF.FileFunction,Soldermask,Bot*%
%TF.FilePolarity,Negative*%
%FSLAX46Y46*%
G04 Gerber Fmt 4.6, Leading zero omitted, Abs format (unit mm)*
G04 Created by KiCad (PCBNEW (5.1.6)-1) date 2021-01-23 20:41:05*
%MOMM*%
%LPD*%
G01*
G04 APERTURE LIST*
%ADD10C,1.000000*%
%ADD11C,8.700000*%
%ADD12R,2.100000X2.100000*%
%ADD13C,2.100000*%
%ADD14C,1.700000*%
%ADD15R,1.800000X1.800000*%
%ADD16O,1.800000X1.800000*%
%ADD17O,1.700000X1.700000*%
%ADD18R,1.700000X1.700000*%
%ADD19C,1.600000*%
G04 APERTURE END LIST*
D10*
%TO.C,H3*%
X116580419Y-89159581D03*
X114300000Y-88215000D03*
X112019581Y-89159581D03*
X111075000Y-91440000D03*
X112019581Y-93720419D03*
X114300000Y-94665000D03*
X116580419Y-93720419D03*
X117525000Y-91440000D03*
D11*
X114300000Y-91440000D03*
%TD*%
D10*
%TO.C,H4*%
X116580419Y-129799581D03*
X114300000Y-128855000D03*
X112019581Y-129799581D03*
X111075000Y-132080000D03*
X112019581Y-134360419D03*
X114300000Y-135305000D03*
X116580419Y-134360419D03*
X117525000Y-132080000D03*
D11*
X114300000Y-132080000D03*
%TD*%
D10*
%TO.C,H2*%
X73400419Y-129799581D03*
X71120000Y-128855000D03*
X68839581Y-129799581D03*
X67895000Y-132080000D03*
X68839581Y-134360419D03*
X71120000Y-135305000D03*
X73400419Y-134360419D03*
X74345000Y-132080000D03*
D11*
X71120000Y-132080000D03*
%TD*%
D10*
%TO.C,H1*%
X73400419Y-89159581D03*
X71120000Y-88215000D03*
X68839581Y-89159581D03*
X67895000Y-91440000D03*
X68839581Y-93720419D03*
X71120000Y-94665000D03*
X73400419Y-93720419D03*
X74345000Y-91440000D03*
D11*
X71120000Y-91440000D03*
%TD*%
D12*
%TO.C,BZ1*%
X104140000Y-113030000D03*
D13*
X111740000Y-113030000D03*
%TD*%
D14*
%TO.C,22p*%
X86360000Y-106680000D03*
X83860000Y-106680000D03*
%TD*%
%TO.C,22p*%
X83860000Y-121920000D03*
X86360000Y-121920000D03*
%TD*%
D15*
%TO.C,+*%
X112268000Y-120904000D03*
D16*
X112268000Y-123444000D03*
%TD*%
%TO.C,BOTTONE*%
X104140000Y-123444000D03*
D15*
X104140000Y-120904000D03*
%TD*%
%TO.C,+*%
X86360000Y-96520000D03*
D16*
X86360000Y-99060000D03*
X86360000Y-101600000D03*
%TD*%
D15*
%TO.C,+*%
X71120000Y-111760000D03*
D16*
X71120000Y-114300000D03*
X71120000Y-116840000D03*
X71120000Y-119380000D03*
X71120000Y-121920000D03*
X71120000Y-124460000D03*
%TD*%
D15*
%TO.C,5V *%
X93980000Y-88900000D03*
D16*
X96520000Y-88900000D03*
%TD*%
%TO.C,RESET*%
X111760000Y-99060000D03*
D15*
X111760000Y-101600000D03*
%TD*%
D14*
%TO.C,1K*%
X78740000Y-124460000D03*
D17*
X78740000Y-116840000D03*
%TD*%
%TO.C,2K*%
X78740000Y-106680000D03*
D14*
X78740000Y-114300000D03*
%TD*%
D17*
%TO.C,390*%
X104140000Y-127000000D03*
D14*
X104140000Y-134620000D03*
%TD*%
%TO.C,10K*%
X106680000Y-104140000D03*
D17*
X106680000Y-96520000D03*
%TD*%
D18*
%TO.C,ATmega328*%
X91440000Y-99060000D03*
D17*
X99060000Y-132080000D03*
X91440000Y-101600000D03*
X99060000Y-129540000D03*
X91440000Y-104140000D03*
X99060000Y-127000000D03*
X91440000Y-106680000D03*
X99060000Y-124460000D03*
X91440000Y-109220000D03*
X99060000Y-121920000D03*
X91440000Y-111760000D03*
X99060000Y-119380000D03*
X91440000Y-114300000D03*
X99060000Y-116840000D03*
X91440000Y-116840000D03*
X99060000Y-114300000D03*
X91440000Y-119380000D03*
X99060000Y-111760000D03*
X91440000Y-121920000D03*
X99060000Y-109220000D03*
X91440000Y-124460000D03*
X99060000Y-106680000D03*
X91440000Y-127000000D03*
X99060000Y-104140000D03*
X91440000Y-129540000D03*
X99060000Y-101600000D03*
X91440000Y-132080000D03*
X99060000Y-99060000D03*
%TD*%
D19*
%TO.C,Y1*%
X86360000Y-116840000D03*
X86360000Y-111940000D03*
%TD*%
M02*
