%TF.GenerationSoftware,KiCad,Pcbnew,(5.1.6)-1*%
%TF.CreationDate,2021-01-23T20:41:05+01:00*%
%TF.ProjectId,Ricevitore-Trasmettitore_ATMega328,52696365-7669-4746-9f72-652d54726173,rev?*%
%TF.SameCoordinates,Original*%
%TF.FileFunction,Copper,L1,Top*%
%TF.FilePolarity,Positive*%
%FSLAX46Y46*%
G04 Gerber Fmt 4.6, Leading zero omitted, Abs format (unit mm)*
G04 Created by KiCad (PCBNEW (5.1.6)-1) date 2021-01-23 20:41:05*
%MOMM*%
%LPD*%
G01*
G04 APERTURE LIST*
%TA.AperFunction,ComponentPad*%
%ADD10C,0.900000*%
%TD*%
%TA.AperFunction,ComponentPad*%
%ADD11C,8.600000*%
%TD*%
%TA.AperFunction,ComponentPad*%
%ADD12R,2.000000X2.000000*%
%TD*%
%TA.AperFunction,ComponentPad*%
%ADD13C,2.000000*%
%TD*%
%TA.AperFunction,ComponentPad*%
%ADD14C,1.600000*%
%TD*%
%TA.AperFunction,ComponentPad*%
%ADD15R,1.700000X1.700000*%
%TD*%
%TA.AperFunction,ComponentPad*%
%ADD16O,1.700000X1.700000*%
%TD*%
%TA.AperFunction,ComponentPad*%
%ADD17O,1.600000X1.600000*%
%TD*%
%TA.AperFunction,ComponentPad*%
%ADD18R,1.600000X1.600000*%
%TD*%
%TA.AperFunction,ComponentPad*%
%ADD19C,1.500000*%
%TD*%
%TA.AperFunction,Conductor*%
%ADD20C,0.508000*%
%TD*%
%TA.AperFunction,Conductor*%
%ADD21C,0.254000*%
%TD*%
G04 APERTURE END LIST*
D10*
%TO.P,H3,1*%
%TO.N,N/C*%
X116580419Y-89159581D03*
X114300000Y-88215000D03*
X112019581Y-89159581D03*
X111075000Y-91440000D03*
X112019581Y-93720419D03*
X114300000Y-94665000D03*
X116580419Y-93720419D03*
X117525000Y-91440000D03*
D11*
X114300000Y-91440000D03*
%TD*%
D10*
%TO.P,H4,1*%
%TO.N,N/C*%
X116580419Y-129799581D03*
X114300000Y-128855000D03*
X112019581Y-129799581D03*
X111075000Y-132080000D03*
X112019581Y-134360419D03*
X114300000Y-135305000D03*
X116580419Y-134360419D03*
X117525000Y-132080000D03*
D11*
X114300000Y-132080000D03*
%TD*%
D10*
%TO.P,H2,1*%
%TO.N,N/C*%
X73400419Y-129799581D03*
X71120000Y-128855000D03*
X68839581Y-129799581D03*
X67895000Y-132080000D03*
X68839581Y-134360419D03*
X71120000Y-135305000D03*
X73400419Y-134360419D03*
X74345000Y-132080000D03*
D11*
X71120000Y-132080000D03*
%TD*%
D10*
%TO.P,H1,1*%
%TO.N,N/C*%
X73400419Y-89159581D03*
X71120000Y-88215000D03*
X68839581Y-89159581D03*
X67895000Y-91440000D03*
X68839581Y-93720419D03*
X71120000Y-94665000D03*
X73400419Y-93720419D03*
X74345000Y-91440000D03*
D11*
X71120000Y-91440000D03*
%TD*%
D12*
%TO.P,BZ1,1*%
%TO.N,BUZZER*%
X104140000Y-113030000D03*
D13*
%TO.P,BZ1,2*%
%TO.N,GND*%
X111740000Y-113030000D03*
%TD*%
D14*
%TO.P,22p,1*%
%TO.N,GND*%
X86360000Y-106680000D03*
%TO.P,22p,2*%
%TO.N,Net-(C1-Pad2)*%
X83860000Y-106680000D03*
%TD*%
%TO.P,22p,2*%
%TO.N,Net-(C2-Pad2)*%
X83860000Y-121920000D03*
%TO.P,22p,1*%
%TO.N,GND*%
X86360000Y-121920000D03*
%TD*%
D15*
%TO.P,+,1*%
%TO.N,GND*%
X112268000Y-120904000D03*
D16*
%TO.P,+,2*%
%TO.N,Net-(J1-Pad2)*%
X112268000Y-123444000D03*
%TD*%
%TO.P,BOTTONE,2*%
%TO.N,BOTTONE*%
X104140000Y-123444000D03*
D15*
%TO.P,BOTTONE,1*%
%TO.N,GND*%
X104140000Y-120904000D03*
%TD*%
%TO.P,+,1*%
%TO.N,GND*%
X86360000Y-96520000D03*
D16*
%TO.P,+,2*%
%TO.N,INTERRUPT*%
X86360000Y-99060000D03*
%TO.P,+,3*%
%TO.N,VCC*%
X86360000Y-101600000D03*
%TD*%
D15*
%TO.P,+,1*%
%TO.N,Net-(J4-Pad1)*%
X71120000Y-111760000D03*
D16*
%TO.P,+,2*%
%TO.N,PARTITORE*%
X71120000Y-114300000D03*
%TO.P,+,3*%
%TO.N,RX*%
X71120000Y-116840000D03*
%TO.P,+,4*%
%TO.N,GND*%
X71120000Y-119380000D03*
%TO.P,+,5*%
%TO.N,VCC*%
X71120000Y-121920000D03*
%TO.P,+,6*%
%TO.N,Net-(J4-Pad6)*%
X71120000Y-124460000D03*
%TD*%
D15*
%TO.P,5V ,1*%
%TO.N,GND*%
X93980000Y-88900000D03*
D16*
%TO.P,5V ,2*%
%TO.N,VCC*%
X96520000Y-88900000D03*
%TD*%
%TO.P,RESET,2*%
%TO.N,RESET*%
X111760000Y-99060000D03*
D15*
%TO.P,RESET,1*%
%TO.N,GND*%
X111760000Y-101600000D03*
%TD*%
D14*
%TO.P,1K,1*%
%TO.N,TX*%
X78740000Y-124460000D03*
D17*
%TO.P,1K,2*%
%TO.N,PARTITORE*%
X78740000Y-116840000D03*
%TD*%
%TO.P,2K,2*%
%TO.N,GND*%
X78740000Y-106680000D03*
D14*
%TO.P,2K,1*%
%TO.N,PARTITORE*%
X78740000Y-114300000D03*
%TD*%
D17*
%TO.P,390,2*%
%TO.N,Net-(J1-Pad2)*%
X104140000Y-127000000D03*
D14*
%TO.P,390,1*%
%TO.N,LED*%
X104140000Y-134620000D03*
%TD*%
%TO.P,10K,1*%
%TO.N,VCC*%
X106680000Y-104140000D03*
D17*
%TO.P,10K,2*%
%TO.N,RESET*%
X106680000Y-96520000D03*
%TD*%
D18*
%TO.P,ATmega328,1*%
%TO.N,RESET*%
X91440000Y-99060000D03*
D17*
%TO.P,ATmega328,15*%
%TO.N,LED*%
X99060000Y-132080000D03*
%TO.P,ATmega328,2*%
%TO.N,Net-(U1-Pad2)*%
X91440000Y-101600000D03*
%TO.P,ATmega328,16*%
%TO.N,BOTTONE*%
X99060000Y-129540000D03*
%TO.P,ATmega328,3*%
%TO.N,Net-(U1-Pad3)*%
X91440000Y-104140000D03*
%TO.P,ATmega328,17*%
%TO.N,BUZZER*%
X99060000Y-127000000D03*
%TO.P,ATmega328,4*%
%TO.N,INTERRUPT*%
X91440000Y-106680000D03*
%TO.P,ATmega328,18*%
%TO.N,Net-(U1-Pad18)*%
X99060000Y-124460000D03*
%TO.P,ATmega328,5*%
%TO.N,Net-(U1-Pad5)*%
X91440000Y-109220000D03*
%TO.P,ATmega328,19*%
%TO.N,Net-(U1-Pad19)*%
X99060000Y-121920000D03*
%TO.P,ATmega328,6*%
%TO.N,Net-(U1-Pad6)*%
X91440000Y-111760000D03*
%TO.P,ATmega328,20*%
%TO.N,VCC*%
X99060000Y-119380000D03*
%TO.P,ATmega328,7*%
X91440000Y-114300000D03*
%TO.P,ATmega328,21*%
X99060000Y-116840000D03*
%TO.P,ATmega328,8*%
%TO.N,GND*%
X91440000Y-116840000D03*
%TO.P,ATmega328,22*%
X99060000Y-114300000D03*
%TO.P,ATmega328,9*%
%TO.N,Net-(C1-Pad2)*%
X91440000Y-119380000D03*
%TO.P,ATmega328,23*%
%TO.N,Net-(U1-Pad23)*%
X99060000Y-111760000D03*
%TO.P,ATmega328,10*%
%TO.N,Net-(C2-Pad2)*%
X91440000Y-121920000D03*
%TO.P,ATmega328,24*%
%TO.N,Net-(U1-Pad24)*%
X99060000Y-109220000D03*
%TO.P,ATmega328,11*%
%TO.N,Net-(U1-Pad11)*%
X91440000Y-124460000D03*
%TO.P,ATmega328,25*%
%TO.N,Net-(U1-Pad25)*%
X99060000Y-106680000D03*
%TO.P,ATmega328,12*%
%TO.N,TX*%
X91440000Y-127000000D03*
%TO.P,ATmega328,26*%
%TO.N,Net-(U1-Pad26)*%
X99060000Y-104140000D03*
%TO.P,ATmega328,13*%
%TO.N,RX*%
X91440000Y-129540000D03*
%TO.P,ATmega328,27*%
%TO.N,Net-(U1-Pad27)*%
X99060000Y-101600000D03*
%TO.P,ATmega328,14*%
%TO.N,Net-(U1-Pad14)*%
X91440000Y-132080000D03*
%TO.P,ATmega328,28*%
%TO.N,Net-(U1-Pad28)*%
X99060000Y-99060000D03*
%TD*%
D19*
%TO.P,Y1,1*%
%TO.N,Net-(C2-Pad2)*%
X86360000Y-116840000D03*
%TO.P,Y1,2*%
%TO.N,Net-(C1-Pad2)*%
X86360000Y-111940000D03*
%TD*%
D20*
%TO.N,BUZZER*%
X99060000Y-127000000D02*
X101600000Y-124460000D01*
X101600000Y-124460000D02*
X101600000Y-117348000D01*
X104140000Y-114808000D02*
X104140000Y-113030000D01*
X101600000Y-117348000D02*
X104140000Y-114808000D01*
%TO.N,Net-(C1-Pad2)*%
X83860000Y-109440000D02*
X86360000Y-111940000D01*
X83860000Y-106680000D02*
X83860000Y-109440000D01*
X86360000Y-114300000D02*
X91440000Y-119380000D01*
X86360000Y-111940000D02*
X86360000Y-114300000D01*
%TO.N,Net-(C2-Pad2)*%
X86360000Y-116840000D02*
X83820000Y-119380000D01*
X83860000Y-119420000D02*
X83860000Y-121920000D01*
X83820000Y-119380000D02*
X83860000Y-119420000D01*
X86360000Y-116840000D02*
X86360000Y-119380000D01*
X88900000Y-121920000D02*
X91440000Y-121920000D01*
X86360000Y-119380000D02*
X88900000Y-121920000D01*
%TO.N,LED*%
X99060000Y-132080000D02*
X101600000Y-134620000D01*
X101600000Y-134620000D02*
X104140000Y-134620000D01*
%TO.N,BOTTONE*%
X104140000Y-124460000D02*
X104140000Y-123444000D01*
X99060000Y-129540000D02*
X104140000Y-124460000D01*
%TO.N,INTERRUPT*%
X86360000Y-99060000D02*
X84328000Y-101092000D01*
X84328000Y-101092000D02*
X84328000Y-103124000D01*
X84328000Y-103124000D02*
X85852000Y-104648000D01*
X89408000Y-104648000D02*
X91440000Y-106680000D01*
X85852000Y-104648000D02*
X89408000Y-104648000D01*
%TO.N,PARTITORE*%
X71120000Y-114300000D02*
X78740000Y-114300000D01*
X78740000Y-114300000D02*
X78740000Y-116840000D01*
%TO.N,RX*%
X71120000Y-116840000D02*
X73660000Y-119380000D01*
X73660000Y-119380000D02*
X73660000Y-124460000D01*
X78740000Y-129540000D02*
X91440000Y-129540000D01*
X73660000Y-124460000D02*
X78740000Y-129540000D01*
%TO.N,RESET*%
X106680000Y-96520000D02*
X109220000Y-96520000D01*
X109220000Y-96520000D02*
X111760000Y-99060000D01*
X91440000Y-99060000D02*
X93980000Y-96520000D01*
X93980000Y-96520000D02*
X106680000Y-96520000D01*
%TO.N,TX*%
X78740000Y-124460000D02*
X83820000Y-124460000D01*
X86360000Y-127000000D02*
X91440000Y-127000000D01*
X83820000Y-124460000D02*
X86360000Y-127000000D01*
%TO.N,Net-(J1-Pad2)*%
X104140000Y-127000000D02*
X110236000Y-127000000D01*
X112268000Y-124968000D02*
X112268000Y-123444000D01*
X110236000Y-127000000D02*
X112268000Y-124968000D01*
%TD*%
D21*
%TO.N,GND*%
G36*
X111962401Y-87066660D02*
G01*
X111154121Y-87606735D01*
X110466735Y-88294121D01*
X109926660Y-89102401D01*
X109554650Y-90000514D01*
X109365000Y-90953945D01*
X109365000Y-91926055D01*
X109554650Y-92879486D01*
X109926660Y-93777599D01*
X110466735Y-94585879D01*
X111154121Y-95273265D01*
X111962401Y-95813340D01*
X112860514Y-96185350D01*
X113813945Y-96375000D01*
X114786055Y-96375000D01*
X115739486Y-96185350D01*
X116637599Y-95813340D01*
X117445879Y-95273265D01*
X118133265Y-94585879D01*
X118673340Y-93777599D01*
X118720001Y-93664949D01*
X118720000Y-129855048D01*
X118673340Y-129742401D01*
X118133265Y-128934121D01*
X117445879Y-128246735D01*
X116637599Y-127706660D01*
X115739486Y-127334650D01*
X114786055Y-127145000D01*
X113813945Y-127145000D01*
X112860514Y-127334650D01*
X111962401Y-127706660D01*
X111154121Y-128246735D01*
X110466735Y-128934121D01*
X109926660Y-129742401D01*
X109554650Y-130640514D01*
X109365000Y-131593945D01*
X109365000Y-132566055D01*
X109554650Y-133519486D01*
X109926660Y-134417599D01*
X110466735Y-135225879D01*
X111154121Y-135913265D01*
X111962401Y-136453340D01*
X112075048Y-136500000D01*
X73344952Y-136500000D01*
X73457599Y-136453340D01*
X74265879Y-135913265D01*
X74953265Y-135225879D01*
X75493340Y-134417599D01*
X75865350Y-133519486D01*
X76055000Y-132566055D01*
X76055000Y-131593945D01*
X75865350Y-130640514D01*
X75493340Y-129742401D01*
X74953265Y-128934121D01*
X74265879Y-128246735D01*
X73457599Y-127706660D01*
X72559486Y-127334650D01*
X71606055Y-127145000D01*
X70633945Y-127145000D01*
X69680514Y-127334650D01*
X68782401Y-127706660D01*
X67974121Y-128246735D01*
X67286735Y-128934121D01*
X66746660Y-129742401D01*
X66700000Y-129855048D01*
X66700000Y-110910000D01*
X69631928Y-110910000D01*
X69631928Y-112610000D01*
X69644188Y-112734482D01*
X69680498Y-112854180D01*
X69739463Y-112964494D01*
X69818815Y-113061185D01*
X69915506Y-113140537D01*
X70025820Y-113199502D01*
X70098380Y-113221513D01*
X69966525Y-113353368D01*
X69804010Y-113596589D01*
X69692068Y-113866842D01*
X69635000Y-114153740D01*
X69635000Y-114446260D01*
X69692068Y-114733158D01*
X69804010Y-115003411D01*
X69966525Y-115246632D01*
X70173368Y-115453475D01*
X70347760Y-115570000D01*
X70173368Y-115686525D01*
X69966525Y-115893368D01*
X69804010Y-116136589D01*
X69692068Y-116406842D01*
X69635000Y-116693740D01*
X69635000Y-116986260D01*
X69692068Y-117273158D01*
X69804010Y-117543411D01*
X69966525Y-117786632D01*
X70173368Y-117993475D01*
X70355534Y-118115195D01*
X70238645Y-118184822D01*
X70022412Y-118379731D01*
X69848359Y-118613080D01*
X69723175Y-118875901D01*
X69678524Y-119023110D01*
X69799845Y-119253000D01*
X70993000Y-119253000D01*
X70993000Y-119233000D01*
X71247000Y-119233000D01*
X71247000Y-119253000D01*
X71267000Y-119253000D01*
X71267000Y-119507000D01*
X71247000Y-119507000D01*
X71247000Y-119527000D01*
X70993000Y-119527000D01*
X70993000Y-119507000D01*
X69799845Y-119507000D01*
X69678524Y-119736890D01*
X69723175Y-119884099D01*
X69848359Y-120146920D01*
X70022412Y-120380269D01*
X70238645Y-120575178D01*
X70355534Y-120644805D01*
X70173368Y-120766525D01*
X69966525Y-120973368D01*
X69804010Y-121216589D01*
X69692068Y-121486842D01*
X69635000Y-121773740D01*
X69635000Y-122066260D01*
X69692068Y-122353158D01*
X69804010Y-122623411D01*
X69966525Y-122866632D01*
X70173368Y-123073475D01*
X70347760Y-123190000D01*
X70173368Y-123306525D01*
X69966525Y-123513368D01*
X69804010Y-123756589D01*
X69692068Y-124026842D01*
X69635000Y-124313740D01*
X69635000Y-124606260D01*
X69692068Y-124893158D01*
X69804010Y-125163411D01*
X69966525Y-125406632D01*
X70173368Y-125613475D01*
X70416589Y-125775990D01*
X70686842Y-125887932D01*
X70973740Y-125945000D01*
X71266260Y-125945000D01*
X71553158Y-125887932D01*
X71823411Y-125775990D01*
X72066632Y-125613475D01*
X72273475Y-125406632D01*
X72435990Y-125163411D01*
X72547932Y-124893158D01*
X72605000Y-124606260D01*
X72605000Y-124313740D01*
X72547932Y-124026842D01*
X72435990Y-123756589D01*
X72273475Y-123513368D01*
X72066632Y-123306525D01*
X71892240Y-123190000D01*
X72066632Y-123073475D01*
X72273475Y-122866632D01*
X72435990Y-122623411D01*
X72547932Y-122353158D01*
X72605000Y-122066260D01*
X72605000Y-121773740D01*
X72547932Y-121486842D01*
X72435990Y-121216589D01*
X72273475Y-120973368D01*
X72066632Y-120766525D01*
X71884466Y-120644805D01*
X72001355Y-120575178D01*
X72217588Y-120380269D01*
X72391641Y-120146920D01*
X72516825Y-119884099D01*
X72561476Y-119736890D01*
X72440156Y-119507002D01*
X72529766Y-119507002D01*
X72771000Y-119748236D01*
X72771001Y-124416330D01*
X72766700Y-124460000D01*
X72783864Y-124634274D01*
X72834698Y-124801852D01*
X72902661Y-124929000D01*
X72917248Y-124956291D01*
X73028342Y-125091659D01*
X73062259Y-125119494D01*
X78080506Y-130137742D01*
X78108341Y-130171659D01*
X78243709Y-130282753D01*
X78398149Y-130365303D01*
X78492758Y-130394002D01*
X78565725Y-130416136D01*
X78582325Y-130417771D01*
X78696333Y-130429000D01*
X78696340Y-130429000D01*
X78740000Y-130433300D01*
X78783660Y-130429000D01*
X90308151Y-130429000D01*
X90325363Y-130454759D01*
X90525241Y-130654637D01*
X90757759Y-130810000D01*
X90525241Y-130965363D01*
X90325363Y-131165241D01*
X90168320Y-131400273D01*
X90060147Y-131661426D01*
X90005000Y-131938665D01*
X90005000Y-132221335D01*
X90060147Y-132498574D01*
X90168320Y-132759727D01*
X90325363Y-132994759D01*
X90525241Y-133194637D01*
X90760273Y-133351680D01*
X91021426Y-133459853D01*
X91298665Y-133515000D01*
X91581335Y-133515000D01*
X91858574Y-133459853D01*
X92119727Y-133351680D01*
X92354759Y-133194637D01*
X92554637Y-132994759D01*
X92711680Y-132759727D01*
X92819853Y-132498574D01*
X92875000Y-132221335D01*
X92875000Y-131938665D01*
X92819853Y-131661426D01*
X92711680Y-131400273D01*
X92554637Y-131165241D01*
X92354759Y-130965363D01*
X92122241Y-130810000D01*
X92354759Y-130654637D01*
X92554637Y-130454759D01*
X92711680Y-130219727D01*
X92819853Y-129958574D01*
X92875000Y-129681335D01*
X92875000Y-129398665D01*
X92819853Y-129121426D01*
X92711680Y-128860273D01*
X92554637Y-128625241D01*
X92354759Y-128425363D01*
X92122241Y-128270000D01*
X92354759Y-128114637D01*
X92554637Y-127914759D01*
X92711680Y-127679727D01*
X92819853Y-127418574D01*
X92875000Y-127141335D01*
X92875000Y-126858665D01*
X92819853Y-126581426D01*
X92711680Y-126320273D01*
X92554637Y-126085241D01*
X92354759Y-125885363D01*
X92122241Y-125730000D01*
X92354759Y-125574637D01*
X92554637Y-125374759D01*
X92711680Y-125139727D01*
X92819853Y-124878574D01*
X92875000Y-124601335D01*
X92875000Y-124318665D01*
X92819853Y-124041426D01*
X92711680Y-123780273D01*
X92554637Y-123545241D01*
X92354759Y-123345363D01*
X92122241Y-123190000D01*
X92354759Y-123034637D01*
X92554637Y-122834759D01*
X92711680Y-122599727D01*
X92819853Y-122338574D01*
X92875000Y-122061335D01*
X92875000Y-121778665D01*
X92819853Y-121501426D01*
X92711680Y-121240273D01*
X92554637Y-121005241D01*
X92354759Y-120805363D01*
X92122241Y-120650000D01*
X92354759Y-120494637D01*
X92554637Y-120294759D01*
X92711680Y-120059727D01*
X92819853Y-119798574D01*
X92875000Y-119521335D01*
X92875000Y-119238665D01*
X92819853Y-118961426D01*
X92711680Y-118700273D01*
X92554637Y-118465241D01*
X92354759Y-118265363D01*
X92119727Y-118108320D01*
X92109135Y-118103933D01*
X92295131Y-117992385D01*
X92503519Y-117803414D01*
X92671037Y-117577420D01*
X92791246Y-117323087D01*
X92831904Y-117189039D01*
X92709915Y-116967000D01*
X91567000Y-116967000D01*
X91567000Y-116987000D01*
X91313000Y-116987000D01*
X91313000Y-116967000D01*
X91293000Y-116967000D01*
X91293000Y-116713000D01*
X91313000Y-116713000D01*
X91313000Y-116693000D01*
X91567000Y-116693000D01*
X91567000Y-116713000D01*
X92709915Y-116713000D01*
X92717790Y-116698665D01*
X97625000Y-116698665D01*
X97625000Y-116981335D01*
X97680147Y-117258574D01*
X97788320Y-117519727D01*
X97945363Y-117754759D01*
X98145241Y-117954637D01*
X98377759Y-118110000D01*
X98145241Y-118265363D01*
X97945363Y-118465241D01*
X97788320Y-118700273D01*
X97680147Y-118961426D01*
X97625000Y-119238665D01*
X97625000Y-119521335D01*
X97680147Y-119798574D01*
X97788320Y-120059727D01*
X97945363Y-120294759D01*
X98145241Y-120494637D01*
X98377759Y-120650000D01*
X98145241Y-120805363D01*
X97945363Y-121005241D01*
X97788320Y-121240273D01*
X97680147Y-121501426D01*
X97625000Y-121778665D01*
X97625000Y-122061335D01*
X97680147Y-122338574D01*
X97788320Y-122599727D01*
X97945363Y-122834759D01*
X98145241Y-123034637D01*
X98377759Y-123190000D01*
X98145241Y-123345363D01*
X97945363Y-123545241D01*
X97788320Y-123780273D01*
X97680147Y-124041426D01*
X97625000Y-124318665D01*
X97625000Y-124601335D01*
X97680147Y-124878574D01*
X97788320Y-125139727D01*
X97945363Y-125374759D01*
X98145241Y-125574637D01*
X98377759Y-125730000D01*
X98145241Y-125885363D01*
X97945363Y-126085241D01*
X97788320Y-126320273D01*
X97680147Y-126581426D01*
X97625000Y-126858665D01*
X97625000Y-127141335D01*
X97680147Y-127418574D01*
X97788320Y-127679727D01*
X97945363Y-127914759D01*
X98145241Y-128114637D01*
X98377759Y-128270000D01*
X98145241Y-128425363D01*
X97945363Y-128625241D01*
X97788320Y-128860273D01*
X97680147Y-129121426D01*
X97625000Y-129398665D01*
X97625000Y-129681335D01*
X97680147Y-129958574D01*
X97788320Y-130219727D01*
X97945363Y-130454759D01*
X98145241Y-130654637D01*
X98377759Y-130810000D01*
X98145241Y-130965363D01*
X97945363Y-131165241D01*
X97788320Y-131400273D01*
X97680147Y-131661426D01*
X97625000Y-131938665D01*
X97625000Y-132221335D01*
X97680147Y-132498574D01*
X97788320Y-132759727D01*
X97945363Y-132994759D01*
X98145241Y-133194637D01*
X98380273Y-133351680D01*
X98641426Y-133459853D01*
X98918665Y-133515000D01*
X99201335Y-133515000D01*
X99231721Y-133508956D01*
X100940506Y-135217742D01*
X100968341Y-135251659D01*
X101103709Y-135362753D01*
X101258149Y-135445303D01*
X101324058Y-135465296D01*
X101425724Y-135496136D01*
X101458924Y-135499406D01*
X101556333Y-135509000D01*
X101556339Y-135509000D01*
X101599999Y-135513300D01*
X101643659Y-135509000D01*
X103008151Y-135509000D01*
X103025363Y-135534759D01*
X103225241Y-135734637D01*
X103460273Y-135891680D01*
X103721426Y-135999853D01*
X103998665Y-136055000D01*
X104281335Y-136055000D01*
X104558574Y-135999853D01*
X104819727Y-135891680D01*
X105054759Y-135734637D01*
X105254637Y-135534759D01*
X105411680Y-135299727D01*
X105519853Y-135038574D01*
X105575000Y-134761335D01*
X105575000Y-134478665D01*
X105519853Y-134201426D01*
X105411680Y-133940273D01*
X105254637Y-133705241D01*
X105054759Y-133505363D01*
X104819727Y-133348320D01*
X104558574Y-133240147D01*
X104281335Y-133185000D01*
X103998665Y-133185000D01*
X103721426Y-133240147D01*
X103460273Y-133348320D01*
X103225241Y-133505363D01*
X103025363Y-133705241D01*
X103008151Y-133731000D01*
X101968236Y-133731000D01*
X100488956Y-132251721D01*
X100495000Y-132221335D01*
X100495000Y-131938665D01*
X100439853Y-131661426D01*
X100331680Y-131400273D01*
X100174637Y-131165241D01*
X99974759Y-130965363D01*
X99742241Y-130810000D01*
X99974759Y-130654637D01*
X100174637Y-130454759D01*
X100331680Y-130219727D01*
X100439853Y-129958574D01*
X100495000Y-129681335D01*
X100495000Y-129398665D01*
X100488956Y-129368279D01*
X102706809Y-127150427D01*
X102760147Y-127418574D01*
X102868320Y-127679727D01*
X103025363Y-127914759D01*
X103225241Y-128114637D01*
X103460273Y-128271680D01*
X103721426Y-128379853D01*
X103998665Y-128435000D01*
X104281335Y-128435000D01*
X104558574Y-128379853D01*
X104819727Y-128271680D01*
X105054759Y-128114637D01*
X105254637Y-127914759D01*
X105271849Y-127889000D01*
X110192340Y-127889000D01*
X110236000Y-127893300D01*
X110279660Y-127889000D01*
X110279667Y-127889000D01*
X110410274Y-127876136D01*
X110577851Y-127825303D01*
X110732291Y-127742753D01*
X110867659Y-127631659D01*
X110895499Y-127597736D01*
X112865743Y-125627493D01*
X112899659Y-125599659D01*
X113010753Y-125464291D01*
X113093303Y-125309851D01*
X113144136Y-125142274D01*
X113157000Y-125011667D01*
X113157000Y-125011660D01*
X113161300Y-124968000D01*
X113157000Y-124924340D01*
X113157000Y-124635983D01*
X113214632Y-124597475D01*
X113421475Y-124390632D01*
X113583990Y-124147411D01*
X113695932Y-123877158D01*
X113753000Y-123590260D01*
X113753000Y-123297740D01*
X113695932Y-123010842D01*
X113583990Y-122740589D01*
X113421475Y-122497368D01*
X113289620Y-122365513D01*
X113362180Y-122343502D01*
X113472494Y-122284537D01*
X113569185Y-122205185D01*
X113648537Y-122108494D01*
X113707502Y-121998180D01*
X113743812Y-121878482D01*
X113756072Y-121754000D01*
X113753000Y-121189750D01*
X113594250Y-121031000D01*
X112395000Y-121031000D01*
X112395000Y-121051000D01*
X112141000Y-121051000D01*
X112141000Y-121031000D01*
X110941750Y-121031000D01*
X110783000Y-121189750D01*
X110779928Y-121754000D01*
X110792188Y-121878482D01*
X110828498Y-121998180D01*
X110887463Y-122108494D01*
X110966815Y-122205185D01*
X111063506Y-122284537D01*
X111173820Y-122343502D01*
X111246380Y-122365513D01*
X111114525Y-122497368D01*
X110952010Y-122740589D01*
X110840068Y-123010842D01*
X110783000Y-123297740D01*
X110783000Y-123590260D01*
X110840068Y-123877158D01*
X110952010Y-124147411D01*
X111114525Y-124390632D01*
X111321368Y-124597475D01*
X111357288Y-124621476D01*
X109867765Y-126111000D01*
X105271849Y-126111000D01*
X105254637Y-126085241D01*
X105054759Y-125885363D01*
X104819727Y-125728320D01*
X104558574Y-125620147D01*
X104290427Y-125566809D01*
X104737743Y-125119493D01*
X104771659Y-125091659D01*
X104882753Y-124956291D01*
X104965303Y-124801851D01*
X104994002Y-124707242D01*
X105012216Y-124647198D01*
X105086632Y-124597475D01*
X105293475Y-124390632D01*
X105455990Y-124147411D01*
X105567932Y-123877158D01*
X105625000Y-123590260D01*
X105625000Y-123297740D01*
X105567932Y-123010842D01*
X105455990Y-122740589D01*
X105293475Y-122497368D01*
X105161620Y-122365513D01*
X105234180Y-122343502D01*
X105344494Y-122284537D01*
X105441185Y-122205185D01*
X105520537Y-122108494D01*
X105579502Y-121998180D01*
X105615812Y-121878482D01*
X105628072Y-121754000D01*
X105625000Y-121189750D01*
X105466250Y-121031000D01*
X104267000Y-121031000D01*
X104267000Y-121051000D01*
X104013000Y-121051000D01*
X104013000Y-121031000D01*
X102813750Y-121031000D01*
X102655000Y-121189750D01*
X102651928Y-121754000D01*
X102664188Y-121878482D01*
X102700498Y-121998180D01*
X102759463Y-122108494D01*
X102838815Y-122205185D01*
X102935506Y-122284537D01*
X103045820Y-122343502D01*
X103118380Y-122365513D01*
X102986525Y-122497368D01*
X102824010Y-122740589D01*
X102712068Y-123010842D01*
X102655000Y-123297740D01*
X102655000Y-123590260D01*
X102712068Y-123877158D01*
X102824010Y-124147411D01*
X102972749Y-124370015D01*
X100493191Y-126849573D01*
X100488956Y-126828279D01*
X102197743Y-125119493D01*
X102231659Y-125091659D01*
X102342753Y-124956291D01*
X102425303Y-124801851D01*
X102445296Y-124735942D01*
X102476136Y-124634276D01*
X102479760Y-124597475D01*
X102489000Y-124503667D01*
X102489000Y-124503661D01*
X102493300Y-124460001D01*
X102489000Y-124416341D01*
X102489000Y-120054000D01*
X102651928Y-120054000D01*
X102655000Y-120618250D01*
X102813750Y-120777000D01*
X104013000Y-120777000D01*
X104013000Y-119577750D01*
X104267000Y-119577750D01*
X104267000Y-120777000D01*
X105466250Y-120777000D01*
X105625000Y-120618250D01*
X105628072Y-120054000D01*
X110779928Y-120054000D01*
X110783000Y-120618250D01*
X110941750Y-120777000D01*
X112141000Y-120777000D01*
X112141000Y-119577750D01*
X112395000Y-119577750D01*
X112395000Y-120777000D01*
X113594250Y-120777000D01*
X113753000Y-120618250D01*
X113756072Y-120054000D01*
X113743812Y-119929518D01*
X113707502Y-119809820D01*
X113648537Y-119699506D01*
X113569185Y-119602815D01*
X113472494Y-119523463D01*
X113362180Y-119464498D01*
X113242482Y-119428188D01*
X113118000Y-119415928D01*
X112553750Y-119419000D01*
X112395000Y-119577750D01*
X112141000Y-119577750D01*
X111982250Y-119419000D01*
X111418000Y-119415928D01*
X111293518Y-119428188D01*
X111173820Y-119464498D01*
X111063506Y-119523463D01*
X110966815Y-119602815D01*
X110887463Y-119699506D01*
X110828498Y-119809820D01*
X110792188Y-119929518D01*
X110779928Y-120054000D01*
X105628072Y-120054000D01*
X105615812Y-119929518D01*
X105579502Y-119809820D01*
X105520537Y-119699506D01*
X105441185Y-119602815D01*
X105344494Y-119523463D01*
X105234180Y-119464498D01*
X105114482Y-119428188D01*
X104990000Y-119415928D01*
X104425750Y-119419000D01*
X104267000Y-119577750D01*
X104013000Y-119577750D01*
X103854250Y-119419000D01*
X103290000Y-119415928D01*
X103165518Y-119428188D01*
X103045820Y-119464498D01*
X102935506Y-119523463D01*
X102838815Y-119602815D01*
X102759463Y-119699506D01*
X102700498Y-119809820D01*
X102664188Y-119929518D01*
X102651928Y-120054000D01*
X102489000Y-120054000D01*
X102489000Y-117716235D01*
X104737743Y-115467493D01*
X104771659Y-115439659D01*
X104882753Y-115304291D01*
X104965303Y-115149851D01*
X104999408Y-115037420D01*
X105016136Y-114982276D01*
X105024462Y-114897740D01*
X105029000Y-114851667D01*
X105029000Y-114851661D01*
X105033300Y-114808001D01*
X105029000Y-114764341D01*
X105029000Y-114668072D01*
X105140000Y-114668072D01*
X105264482Y-114655812D01*
X105384180Y-114619502D01*
X105494494Y-114560537D01*
X105591185Y-114481185D01*
X105670537Y-114384494D01*
X105729502Y-114274180D01*
X105762496Y-114165413D01*
X110784192Y-114165413D01*
X110879956Y-114429814D01*
X111169571Y-114570704D01*
X111481108Y-114652384D01*
X111802595Y-114671718D01*
X112121675Y-114627961D01*
X112426088Y-114522795D01*
X112600044Y-114429814D01*
X112695808Y-114165413D01*
X111740000Y-113209605D01*
X110784192Y-114165413D01*
X105762496Y-114165413D01*
X105765812Y-114154482D01*
X105778072Y-114030000D01*
X105778072Y-113092595D01*
X110098282Y-113092595D01*
X110142039Y-113411675D01*
X110247205Y-113716088D01*
X110340186Y-113890044D01*
X110604587Y-113985808D01*
X111560395Y-113030000D01*
X111919605Y-113030000D01*
X112875413Y-113985808D01*
X113139814Y-113890044D01*
X113280704Y-113600429D01*
X113362384Y-113288892D01*
X113381718Y-112967405D01*
X113337961Y-112648325D01*
X113232795Y-112343912D01*
X113139814Y-112169956D01*
X112875413Y-112074192D01*
X111919605Y-113030000D01*
X111560395Y-113030000D01*
X110604587Y-112074192D01*
X110340186Y-112169956D01*
X110199296Y-112459571D01*
X110117616Y-112771108D01*
X110098282Y-113092595D01*
X105778072Y-113092595D01*
X105778072Y-112030000D01*
X105765812Y-111905518D01*
X105762497Y-111894587D01*
X110784192Y-111894587D01*
X111740000Y-112850395D01*
X112695808Y-111894587D01*
X112600044Y-111630186D01*
X112310429Y-111489296D01*
X111998892Y-111407616D01*
X111677405Y-111388282D01*
X111358325Y-111432039D01*
X111053912Y-111537205D01*
X110879956Y-111630186D01*
X110784192Y-111894587D01*
X105762497Y-111894587D01*
X105729502Y-111785820D01*
X105670537Y-111675506D01*
X105591185Y-111578815D01*
X105494494Y-111499463D01*
X105384180Y-111440498D01*
X105264482Y-111404188D01*
X105140000Y-111391928D01*
X103140000Y-111391928D01*
X103015518Y-111404188D01*
X102895820Y-111440498D01*
X102785506Y-111499463D01*
X102688815Y-111578815D01*
X102609463Y-111675506D01*
X102550498Y-111785820D01*
X102514188Y-111905518D01*
X102501928Y-112030000D01*
X102501928Y-114030000D01*
X102514188Y-114154482D01*
X102550498Y-114274180D01*
X102609463Y-114384494D01*
X102688815Y-114481185D01*
X102785506Y-114560537D01*
X102895820Y-114619502D01*
X103015518Y-114655812D01*
X103033210Y-114657554D01*
X101002259Y-116688506D01*
X100968342Y-116716341D01*
X100940507Y-116750258D01*
X100940505Y-116750260D01*
X100857248Y-116851709D01*
X100774698Y-117006148D01*
X100723864Y-117173726D01*
X100706700Y-117348000D01*
X100711001Y-117391670D01*
X100711000Y-124091764D01*
X100493191Y-124309573D01*
X100439853Y-124041426D01*
X100331680Y-123780273D01*
X100174637Y-123545241D01*
X99974759Y-123345363D01*
X99742241Y-123190000D01*
X99974759Y-123034637D01*
X100174637Y-122834759D01*
X100331680Y-122599727D01*
X100439853Y-122338574D01*
X100495000Y-122061335D01*
X100495000Y-121778665D01*
X100439853Y-121501426D01*
X100331680Y-121240273D01*
X100174637Y-121005241D01*
X99974759Y-120805363D01*
X99742241Y-120650000D01*
X99974759Y-120494637D01*
X100174637Y-120294759D01*
X100331680Y-120059727D01*
X100439853Y-119798574D01*
X100495000Y-119521335D01*
X100495000Y-119238665D01*
X100439853Y-118961426D01*
X100331680Y-118700273D01*
X100174637Y-118465241D01*
X99974759Y-118265363D01*
X99742241Y-118110000D01*
X99974759Y-117954637D01*
X100174637Y-117754759D01*
X100331680Y-117519727D01*
X100439853Y-117258574D01*
X100495000Y-116981335D01*
X100495000Y-116698665D01*
X100439853Y-116421426D01*
X100331680Y-116160273D01*
X100174637Y-115925241D01*
X99974759Y-115725363D01*
X99739727Y-115568320D01*
X99729135Y-115563933D01*
X99915131Y-115452385D01*
X100123519Y-115263414D01*
X100291037Y-115037420D01*
X100411246Y-114783087D01*
X100451904Y-114649039D01*
X100329915Y-114427000D01*
X99187000Y-114427000D01*
X99187000Y-114447000D01*
X98933000Y-114447000D01*
X98933000Y-114427000D01*
X97790085Y-114427000D01*
X97668096Y-114649039D01*
X97708754Y-114783087D01*
X97828963Y-115037420D01*
X97996481Y-115263414D01*
X98204869Y-115452385D01*
X98390865Y-115563933D01*
X98380273Y-115568320D01*
X98145241Y-115725363D01*
X97945363Y-115925241D01*
X97788320Y-116160273D01*
X97680147Y-116421426D01*
X97625000Y-116698665D01*
X92717790Y-116698665D01*
X92831904Y-116490961D01*
X92791246Y-116356913D01*
X92671037Y-116102580D01*
X92503519Y-115876586D01*
X92295131Y-115687615D01*
X92109135Y-115576067D01*
X92119727Y-115571680D01*
X92354759Y-115414637D01*
X92554637Y-115214759D01*
X92711680Y-114979727D01*
X92819853Y-114718574D01*
X92875000Y-114441335D01*
X92875000Y-114158665D01*
X92819853Y-113881426D01*
X92711680Y-113620273D01*
X92554637Y-113385241D01*
X92354759Y-113185363D01*
X92122241Y-113030000D01*
X92354759Y-112874637D01*
X92554637Y-112674759D01*
X92711680Y-112439727D01*
X92819853Y-112178574D01*
X92875000Y-111901335D01*
X92875000Y-111618665D01*
X92819853Y-111341426D01*
X92711680Y-111080273D01*
X92554637Y-110845241D01*
X92354759Y-110645363D01*
X92122241Y-110490000D01*
X92354759Y-110334637D01*
X92554637Y-110134759D01*
X92711680Y-109899727D01*
X92819853Y-109638574D01*
X92875000Y-109361335D01*
X92875000Y-109078665D01*
X92819853Y-108801426D01*
X92711680Y-108540273D01*
X92554637Y-108305241D01*
X92354759Y-108105363D01*
X92122241Y-107950000D01*
X92354759Y-107794637D01*
X92554637Y-107594759D01*
X92711680Y-107359727D01*
X92819853Y-107098574D01*
X92875000Y-106821335D01*
X92875000Y-106538665D01*
X92819853Y-106261426D01*
X92711680Y-106000273D01*
X92554637Y-105765241D01*
X92354759Y-105565363D01*
X92122241Y-105410000D01*
X92354759Y-105254637D01*
X92554637Y-105054759D01*
X92711680Y-104819727D01*
X92819853Y-104558574D01*
X92875000Y-104281335D01*
X92875000Y-103998665D01*
X92819853Y-103721426D01*
X92711680Y-103460273D01*
X92554637Y-103225241D01*
X92354759Y-103025363D01*
X92122241Y-102870000D01*
X92354759Y-102714637D01*
X92554637Y-102514759D01*
X92711680Y-102279727D01*
X92819853Y-102018574D01*
X92875000Y-101741335D01*
X92875000Y-101458665D01*
X92819853Y-101181426D01*
X92711680Y-100920273D01*
X92554637Y-100685241D01*
X92356039Y-100486643D01*
X92364482Y-100485812D01*
X92484180Y-100449502D01*
X92594494Y-100390537D01*
X92691185Y-100311185D01*
X92770537Y-100214494D01*
X92829502Y-100104180D01*
X92865812Y-99984482D01*
X92878072Y-99860000D01*
X92878072Y-98918665D01*
X97625000Y-98918665D01*
X97625000Y-99201335D01*
X97680147Y-99478574D01*
X97788320Y-99739727D01*
X97945363Y-99974759D01*
X98145241Y-100174637D01*
X98377759Y-100330000D01*
X98145241Y-100485363D01*
X97945363Y-100685241D01*
X97788320Y-100920273D01*
X97680147Y-101181426D01*
X97625000Y-101458665D01*
X97625000Y-101741335D01*
X97680147Y-102018574D01*
X97788320Y-102279727D01*
X97945363Y-102514759D01*
X98145241Y-102714637D01*
X98377759Y-102870000D01*
X98145241Y-103025363D01*
X97945363Y-103225241D01*
X97788320Y-103460273D01*
X97680147Y-103721426D01*
X97625000Y-103998665D01*
X97625000Y-104281335D01*
X97680147Y-104558574D01*
X97788320Y-104819727D01*
X97945363Y-105054759D01*
X98145241Y-105254637D01*
X98377759Y-105410000D01*
X98145241Y-105565363D01*
X97945363Y-105765241D01*
X97788320Y-106000273D01*
X97680147Y-106261426D01*
X97625000Y-106538665D01*
X97625000Y-106821335D01*
X97680147Y-107098574D01*
X97788320Y-107359727D01*
X97945363Y-107594759D01*
X98145241Y-107794637D01*
X98377759Y-107950000D01*
X98145241Y-108105363D01*
X97945363Y-108305241D01*
X97788320Y-108540273D01*
X97680147Y-108801426D01*
X97625000Y-109078665D01*
X97625000Y-109361335D01*
X97680147Y-109638574D01*
X97788320Y-109899727D01*
X97945363Y-110134759D01*
X98145241Y-110334637D01*
X98377759Y-110490000D01*
X98145241Y-110645363D01*
X97945363Y-110845241D01*
X97788320Y-111080273D01*
X97680147Y-111341426D01*
X97625000Y-111618665D01*
X97625000Y-111901335D01*
X97680147Y-112178574D01*
X97788320Y-112439727D01*
X97945363Y-112674759D01*
X98145241Y-112874637D01*
X98380273Y-113031680D01*
X98390865Y-113036067D01*
X98204869Y-113147615D01*
X97996481Y-113336586D01*
X97828963Y-113562580D01*
X97708754Y-113816913D01*
X97668096Y-113950961D01*
X97790085Y-114173000D01*
X98933000Y-114173000D01*
X98933000Y-114153000D01*
X99187000Y-114153000D01*
X99187000Y-114173000D01*
X100329915Y-114173000D01*
X100451904Y-113950961D01*
X100411246Y-113816913D01*
X100291037Y-113562580D01*
X100123519Y-113336586D01*
X99915131Y-113147615D01*
X99729135Y-113036067D01*
X99739727Y-113031680D01*
X99974759Y-112874637D01*
X100174637Y-112674759D01*
X100331680Y-112439727D01*
X100439853Y-112178574D01*
X100495000Y-111901335D01*
X100495000Y-111618665D01*
X100439853Y-111341426D01*
X100331680Y-111080273D01*
X100174637Y-110845241D01*
X99974759Y-110645363D01*
X99742241Y-110490000D01*
X99974759Y-110334637D01*
X100174637Y-110134759D01*
X100331680Y-109899727D01*
X100439853Y-109638574D01*
X100495000Y-109361335D01*
X100495000Y-109078665D01*
X100439853Y-108801426D01*
X100331680Y-108540273D01*
X100174637Y-108305241D01*
X99974759Y-108105363D01*
X99742241Y-107950000D01*
X99974759Y-107794637D01*
X100174637Y-107594759D01*
X100331680Y-107359727D01*
X100439853Y-107098574D01*
X100495000Y-106821335D01*
X100495000Y-106538665D01*
X100439853Y-106261426D01*
X100331680Y-106000273D01*
X100174637Y-105765241D01*
X99974759Y-105565363D01*
X99742241Y-105410000D01*
X99974759Y-105254637D01*
X100174637Y-105054759D01*
X100331680Y-104819727D01*
X100439853Y-104558574D01*
X100495000Y-104281335D01*
X100495000Y-103998665D01*
X105245000Y-103998665D01*
X105245000Y-104281335D01*
X105300147Y-104558574D01*
X105408320Y-104819727D01*
X105565363Y-105054759D01*
X105765241Y-105254637D01*
X106000273Y-105411680D01*
X106261426Y-105519853D01*
X106538665Y-105575000D01*
X106821335Y-105575000D01*
X107098574Y-105519853D01*
X107359727Y-105411680D01*
X107594759Y-105254637D01*
X107794637Y-105054759D01*
X107951680Y-104819727D01*
X108059853Y-104558574D01*
X108115000Y-104281335D01*
X108115000Y-103998665D01*
X108059853Y-103721426D01*
X107951680Y-103460273D01*
X107794637Y-103225241D01*
X107594759Y-103025363D01*
X107359727Y-102868320D01*
X107098574Y-102760147D01*
X106821335Y-102705000D01*
X106538665Y-102705000D01*
X106261426Y-102760147D01*
X106000273Y-102868320D01*
X105765241Y-103025363D01*
X105565363Y-103225241D01*
X105408320Y-103460273D01*
X105300147Y-103721426D01*
X105245000Y-103998665D01*
X100495000Y-103998665D01*
X100439853Y-103721426D01*
X100331680Y-103460273D01*
X100174637Y-103225241D01*
X99974759Y-103025363D01*
X99742241Y-102870000D01*
X99974759Y-102714637D01*
X100174637Y-102514759D01*
X100217907Y-102450000D01*
X110271928Y-102450000D01*
X110284188Y-102574482D01*
X110320498Y-102694180D01*
X110379463Y-102804494D01*
X110458815Y-102901185D01*
X110555506Y-102980537D01*
X110665820Y-103039502D01*
X110785518Y-103075812D01*
X110910000Y-103088072D01*
X111474250Y-103085000D01*
X111633000Y-102926250D01*
X111633000Y-101727000D01*
X111887000Y-101727000D01*
X111887000Y-102926250D01*
X112045750Y-103085000D01*
X112610000Y-103088072D01*
X112734482Y-103075812D01*
X112854180Y-103039502D01*
X112964494Y-102980537D01*
X113061185Y-102901185D01*
X113140537Y-102804494D01*
X113199502Y-102694180D01*
X113235812Y-102574482D01*
X113248072Y-102450000D01*
X113245000Y-101885750D01*
X113086250Y-101727000D01*
X111887000Y-101727000D01*
X111633000Y-101727000D01*
X110433750Y-101727000D01*
X110275000Y-101885750D01*
X110271928Y-102450000D01*
X100217907Y-102450000D01*
X100331680Y-102279727D01*
X100439853Y-102018574D01*
X100495000Y-101741335D01*
X100495000Y-101458665D01*
X100439853Y-101181426D01*
X100331680Y-100920273D01*
X100174637Y-100685241D01*
X99974759Y-100485363D01*
X99742241Y-100330000D01*
X99974759Y-100174637D01*
X100174637Y-99974759D01*
X100331680Y-99739727D01*
X100439853Y-99478574D01*
X100495000Y-99201335D01*
X100495000Y-98918665D01*
X100439853Y-98641426D01*
X100331680Y-98380273D01*
X100174637Y-98145241D01*
X99974759Y-97945363D01*
X99739727Y-97788320D01*
X99478574Y-97680147D01*
X99201335Y-97625000D01*
X98918665Y-97625000D01*
X98641426Y-97680147D01*
X98380273Y-97788320D01*
X98145241Y-97945363D01*
X97945363Y-98145241D01*
X97788320Y-98380273D01*
X97680147Y-98641426D01*
X97625000Y-98918665D01*
X92878072Y-98918665D01*
X92878072Y-98879163D01*
X94348236Y-97409000D01*
X105548151Y-97409000D01*
X105565363Y-97434759D01*
X105765241Y-97634637D01*
X106000273Y-97791680D01*
X106261426Y-97899853D01*
X106538665Y-97955000D01*
X106821335Y-97955000D01*
X107098574Y-97899853D01*
X107359727Y-97791680D01*
X107594759Y-97634637D01*
X107794637Y-97434759D01*
X107811849Y-97409000D01*
X108851765Y-97409000D01*
X110288523Y-98845758D01*
X110275000Y-98913740D01*
X110275000Y-99206260D01*
X110332068Y-99493158D01*
X110444010Y-99763411D01*
X110606525Y-100006632D01*
X110738380Y-100138487D01*
X110665820Y-100160498D01*
X110555506Y-100219463D01*
X110458815Y-100298815D01*
X110379463Y-100395506D01*
X110320498Y-100505820D01*
X110284188Y-100625518D01*
X110271928Y-100750000D01*
X110275000Y-101314250D01*
X110433750Y-101473000D01*
X111633000Y-101473000D01*
X111633000Y-101453000D01*
X111887000Y-101453000D01*
X111887000Y-101473000D01*
X113086250Y-101473000D01*
X113245000Y-101314250D01*
X113248072Y-100750000D01*
X113235812Y-100625518D01*
X113199502Y-100505820D01*
X113140537Y-100395506D01*
X113061185Y-100298815D01*
X112964494Y-100219463D01*
X112854180Y-100160498D01*
X112781620Y-100138487D01*
X112913475Y-100006632D01*
X113075990Y-99763411D01*
X113187932Y-99493158D01*
X113245000Y-99206260D01*
X113245000Y-98913740D01*
X113187932Y-98626842D01*
X113075990Y-98356589D01*
X112913475Y-98113368D01*
X112706632Y-97906525D01*
X112463411Y-97744010D01*
X112193158Y-97632068D01*
X111906260Y-97575000D01*
X111613740Y-97575000D01*
X111545758Y-97588523D01*
X109879499Y-95922264D01*
X109851659Y-95888341D01*
X109716291Y-95777247D01*
X109561851Y-95694697D01*
X109394274Y-95643864D01*
X109263667Y-95631000D01*
X109263660Y-95631000D01*
X109220000Y-95626700D01*
X109176340Y-95631000D01*
X107811849Y-95631000D01*
X107794637Y-95605241D01*
X107594759Y-95405363D01*
X107359727Y-95248320D01*
X107098574Y-95140147D01*
X106821335Y-95085000D01*
X106538665Y-95085000D01*
X106261426Y-95140147D01*
X106000273Y-95248320D01*
X105765241Y-95405363D01*
X105565363Y-95605241D01*
X105548151Y-95631000D01*
X94023659Y-95631000D01*
X93979999Y-95626700D01*
X93936339Y-95631000D01*
X93936333Y-95631000D01*
X93838924Y-95640594D01*
X93805724Y-95643864D01*
X93704058Y-95674704D01*
X93638149Y-95694697D01*
X93483709Y-95777247D01*
X93348341Y-95888341D01*
X93320506Y-95922258D01*
X91620837Y-97621928D01*
X90640000Y-97621928D01*
X90515518Y-97634188D01*
X90395820Y-97670498D01*
X90285506Y-97729463D01*
X90188815Y-97808815D01*
X90109463Y-97905506D01*
X90050498Y-98015820D01*
X90014188Y-98135518D01*
X90001928Y-98260000D01*
X90001928Y-99860000D01*
X90014188Y-99984482D01*
X90050498Y-100104180D01*
X90109463Y-100214494D01*
X90188815Y-100311185D01*
X90285506Y-100390537D01*
X90395820Y-100449502D01*
X90515518Y-100485812D01*
X90523961Y-100486643D01*
X90325363Y-100685241D01*
X90168320Y-100920273D01*
X90060147Y-101181426D01*
X90005000Y-101458665D01*
X90005000Y-101741335D01*
X90060147Y-102018574D01*
X90168320Y-102279727D01*
X90325363Y-102514759D01*
X90525241Y-102714637D01*
X90757759Y-102870000D01*
X90525241Y-103025363D01*
X90325363Y-103225241D01*
X90168320Y-103460273D01*
X90060147Y-103721426D01*
X90006841Y-103989408D01*
X89904291Y-103905247D01*
X89749851Y-103822697D01*
X89582274Y-103771864D01*
X89451667Y-103759000D01*
X89451660Y-103759000D01*
X89408000Y-103754700D01*
X89364340Y-103759000D01*
X86220236Y-103759000D01*
X85217000Y-102755765D01*
X85217000Y-102557107D01*
X85413368Y-102753475D01*
X85656589Y-102915990D01*
X85926842Y-103027932D01*
X86213740Y-103085000D01*
X86506260Y-103085000D01*
X86793158Y-103027932D01*
X87063411Y-102915990D01*
X87306632Y-102753475D01*
X87513475Y-102546632D01*
X87675990Y-102303411D01*
X87787932Y-102033158D01*
X87845000Y-101746260D01*
X87845000Y-101453740D01*
X87787932Y-101166842D01*
X87675990Y-100896589D01*
X87513475Y-100653368D01*
X87306632Y-100446525D01*
X87132240Y-100330000D01*
X87306632Y-100213475D01*
X87513475Y-100006632D01*
X87675990Y-99763411D01*
X87787932Y-99493158D01*
X87845000Y-99206260D01*
X87845000Y-98913740D01*
X87787932Y-98626842D01*
X87675990Y-98356589D01*
X87513475Y-98113368D01*
X87381620Y-97981513D01*
X87454180Y-97959502D01*
X87564494Y-97900537D01*
X87661185Y-97821185D01*
X87740537Y-97724494D01*
X87799502Y-97614180D01*
X87835812Y-97494482D01*
X87848072Y-97370000D01*
X87845000Y-96805750D01*
X87686250Y-96647000D01*
X86487000Y-96647000D01*
X86487000Y-96667000D01*
X86233000Y-96667000D01*
X86233000Y-96647000D01*
X85033750Y-96647000D01*
X84875000Y-96805750D01*
X84871928Y-97370000D01*
X84884188Y-97494482D01*
X84920498Y-97614180D01*
X84979463Y-97724494D01*
X85058815Y-97821185D01*
X85155506Y-97900537D01*
X85265820Y-97959502D01*
X85338380Y-97981513D01*
X85206525Y-98113368D01*
X85044010Y-98356589D01*
X84932068Y-98626842D01*
X84875000Y-98913740D01*
X84875000Y-99206260D01*
X84888523Y-99274242D01*
X83730264Y-100432501D01*
X83696341Y-100460341D01*
X83585247Y-100595710D01*
X83502697Y-100750150D01*
X83451864Y-100917727D01*
X83439000Y-101048334D01*
X83439000Y-101048340D01*
X83434700Y-101092000D01*
X83439000Y-101135660D01*
X83439001Y-103080330D01*
X83434700Y-103124000D01*
X83451864Y-103298274D01*
X83502698Y-103465852D01*
X83585248Y-103620291D01*
X83668248Y-103721426D01*
X83696342Y-103755659D01*
X83730259Y-103783494D01*
X85192504Y-105245740D01*
X85220341Y-105279659D01*
X85355709Y-105390753D01*
X85510149Y-105473303D01*
X85576058Y-105493296D01*
X85601556Y-105501031D01*
X85546903Y-105687298D01*
X86360000Y-106500395D01*
X87173097Y-105687298D01*
X87128998Y-105537000D01*
X89039765Y-105537000D01*
X90011044Y-106508280D01*
X90005000Y-106538665D01*
X90005000Y-106821335D01*
X90060147Y-107098574D01*
X90168320Y-107359727D01*
X90325363Y-107594759D01*
X90525241Y-107794637D01*
X90757759Y-107950000D01*
X90525241Y-108105363D01*
X90325363Y-108305241D01*
X90168320Y-108540273D01*
X90060147Y-108801426D01*
X90005000Y-109078665D01*
X90005000Y-109361335D01*
X90060147Y-109638574D01*
X90168320Y-109899727D01*
X90325363Y-110134759D01*
X90525241Y-110334637D01*
X90757759Y-110490000D01*
X90525241Y-110645363D01*
X90325363Y-110845241D01*
X90168320Y-111080273D01*
X90060147Y-111341426D01*
X90005000Y-111618665D01*
X90005000Y-111901335D01*
X90060147Y-112178574D01*
X90168320Y-112439727D01*
X90325363Y-112674759D01*
X90525241Y-112874637D01*
X90757759Y-113030000D01*
X90525241Y-113185363D01*
X90325363Y-113385241D01*
X90168320Y-113620273D01*
X90060147Y-113881426D01*
X90005000Y-114158665D01*
X90005000Y-114441335D01*
X90060147Y-114718574D01*
X90168320Y-114979727D01*
X90325363Y-115214759D01*
X90525241Y-115414637D01*
X90760273Y-115571680D01*
X90770865Y-115576067D01*
X90584869Y-115687615D01*
X90376481Y-115876586D01*
X90208963Y-116102580D01*
X90088754Y-116356913D01*
X90048096Y-116490961D01*
X90170084Y-116712998D01*
X90030234Y-116712998D01*
X87249000Y-113931765D01*
X87249000Y-113009685D01*
X87435799Y-112822886D01*
X87587371Y-112596043D01*
X87691775Y-112343989D01*
X87745000Y-112076411D01*
X87745000Y-111803589D01*
X87691775Y-111536011D01*
X87587371Y-111283957D01*
X87435799Y-111057114D01*
X87242886Y-110864201D01*
X87016043Y-110712629D01*
X86763989Y-110608225D01*
X86496411Y-110555000D01*
X86232236Y-110555000D01*
X84749000Y-109071765D01*
X84749000Y-107811849D01*
X84774759Y-107794637D01*
X84896694Y-107672702D01*
X85546903Y-107672702D01*
X85618486Y-107916671D01*
X85873996Y-108037571D01*
X86148184Y-108106300D01*
X86430512Y-108120217D01*
X86710130Y-108078787D01*
X86976292Y-107983603D01*
X87101514Y-107916671D01*
X87173097Y-107672702D01*
X86360000Y-106859605D01*
X85546903Y-107672702D01*
X84896694Y-107672702D01*
X84974637Y-107594759D01*
X85108692Y-107394131D01*
X85123329Y-107421514D01*
X85367298Y-107493097D01*
X86180395Y-106680000D01*
X86539605Y-106680000D01*
X87352702Y-107493097D01*
X87596671Y-107421514D01*
X87717571Y-107166004D01*
X87786300Y-106891816D01*
X87800217Y-106609488D01*
X87758787Y-106329870D01*
X87663603Y-106063708D01*
X87596671Y-105938486D01*
X87352702Y-105866903D01*
X86539605Y-106680000D01*
X86180395Y-106680000D01*
X85367298Y-105866903D01*
X85123329Y-105938486D01*
X85109676Y-105967341D01*
X84974637Y-105765241D01*
X84774759Y-105565363D01*
X84539727Y-105408320D01*
X84278574Y-105300147D01*
X84001335Y-105245000D01*
X83718665Y-105245000D01*
X83441426Y-105300147D01*
X83180273Y-105408320D01*
X82945241Y-105565363D01*
X82745363Y-105765241D01*
X82588320Y-106000273D01*
X82480147Y-106261426D01*
X82425000Y-106538665D01*
X82425000Y-106821335D01*
X82480147Y-107098574D01*
X82588320Y-107359727D01*
X82745363Y-107594759D01*
X82945241Y-107794637D01*
X82971000Y-107811849D01*
X82971001Y-109396330D01*
X82966700Y-109440000D01*
X82983864Y-109614274D01*
X83034698Y-109781852D01*
X83097704Y-109899727D01*
X83117248Y-109936291D01*
X83228342Y-110071659D01*
X83262259Y-110099494D01*
X84975000Y-111812236D01*
X84975000Y-112076411D01*
X85028225Y-112343989D01*
X85132629Y-112596043D01*
X85284201Y-112822886D01*
X85471000Y-113009685D01*
X85471001Y-114256330D01*
X85466700Y-114300000D01*
X85483864Y-114474274D01*
X85534698Y-114641852D01*
X85610190Y-114783087D01*
X85617248Y-114796291D01*
X85728342Y-114931659D01*
X85762259Y-114959494D01*
X86257765Y-115455000D01*
X86223589Y-115455000D01*
X85956011Y-115508225D01*
X85703957Y-115612629D01*
X85477114Y-115764201D01*
X85284201Y-115957114D01*
X85132629Y-116183957D01*
X85028225Y-116436011D01*
X84975000Y-116703589D01*
X84975000Y-116967764D01*
X83222262Y-118720503D01*
X83188341Y-118748341D01*
X83160505Y-118782260D01*
X83077248Y-118883709D01*
X82994698Y-119038148D01*
X82943864Y-119205726D01*
X82926700Y-119380000D01*
X82943864Y-119554274D01*
X82971000Y-119643730D01*
X82971001Y-120788151D01*
X82945241Y-120805363D01*
X82745363Y-121005241D01*
X82588320Y-121240273D01*
X82480147Y-121501426D01*
X82425000Y-121778665D01*
X82425000Y-122061335D01*
X82480147Y-122338574D01*
X82588320Y-122599727D01*
X82745363Y-122834759D01*
X82945241Y-123034637D01*
X83180273Y-123191680D01*
X83441426Y-123299853D01*
X83718665Y-123355000D01*
X84001335Y-123355000D01*
X84278574Y-123299853D01*
X84539727Y-123191680D01*
X84774759Y-123034637D01*
X84896694Y-122912702D01*
X85546903Y-122912702D01*
X85618486Y-123156671D01*
X85873996Y-123277571D01*
X86148184Y-123346300D01*
X86430512Y-123360217D01*
X86710130Y-123318787D01*
X86976292Y-123223603D01*
X87101514Y-123156671D01*
X87173097Y-122912702D01*
X86360000Y-122099605D01*
X85546903Y-122912702D01*
X84896694Y-122912702D01*
X84974637Y-122834759D01*
X85108692Y-122634131D01*
X85123329Y-122661514D01*
X85367298Y-122733097D01*
X86180395Y-121920000D01*
X85367298Y-121106903D01*
X85123329Y-121178486D01*
X85109676Y-121207341D01*
X84974637Y-121005241D01*
X84774759Y-120805363D01*
X84749000Y-120788151D01*
X84749000Y-119708235D01*
X85471001Y-118986235D01*
X85471001Y-119336330D01*
X85466700Y-119380000D01*
X85483864Y-119554274D01*
X85534698Y-119721852D01*
X85556079Y-119761852D01*
X85617248Y-119876291D01*
X85728342Y-120011659D01*
X85762259Y-120039494D01*
X86213767Y-120491002D01*
X86009870Y-120521213D01*
X85743708Y-120616397D01*
X85618486Y-120683329D01*
X85546903Y-120927298D01*
X86360000Y-121740395D01*
X86374143Y-121726253D01*
X86553748Y-121905858D01*
X86539605Y-121920000D01*
X87352702Y-122733097D01*
X87596671Y-122661514D01*
X87717571Y-122406004D01*
X87786300Y-122131816D01*
X87789508Y-122066743D01*
X88240506Y-122517742D01*
X88268341Y-122551659D01*
X88403709Y-122662753D01*
X88558149Y-122745303D01*
X88624058Y-122765296D01*
X88725724Y-122796136D01*
X88758924Y-122799406D01*
X88856333Y-122809000D01*
X88856339Y-122809000D01*
X88899999Y-122813300D01*
X88943659Y-122809000D01*
X90308151Y-122809000D01*
X90325363Y-122834759D01*
X90525241Y-123034637D01*
X90757759Y-123190000D01*
X90525241Y-123345363D01*
X90325363Y-123545241D01*
X90168320Y-123780273D01*
X90060147Y-124041426D01*
X90005000Y-124318665D01*
X90005000Y-124601335D01*
X90060147Y-124878574D01*
X90168320Y-125139727D01*
X90325363Y-125374759D01*
X90525241Y-125574637D01*
X90757759Y-125730000D01*
X90525241Y-125885363D01*
X90325363Y-126085241D01*
X90308151Y-126111000D01*
X86728236Y-126111000D01*
X84479499Y-123862264D01*
X84451659Y-123828341D01*
X84316291Y-123717247D01*
X84161851Y-123634697D01*
X83994274Y-123583864D01*
X83863667Y-123571000D01*
X83863660Y-123571000D01*
X83820000Y-123566700D01*
X83776340Y-123571000D01*
X79871849Y-123571000D01*
X79854637Y-123545241D01*
X79654759Y-123345363D01*
X79419727Y-123188320D01*
X79158574Y-123080147D01*
X78881335Y-123025000D01*
X78598665Y-123025000D01*
X78321426Y-123080147D01*
X78060273Y-123188320D01*
X77825241Y-123345363D01*
X77625363Y-123545241D01*
X77468320Y-123780273D01*
X77360147Y-124041426D01*
X77305000Y-124318665D01*
X77305000Y-124601335D01*
X77360147Y-124878574D01*
X77468320Y-125139727D01*
X77625363Y-125374759D01*
X77825241Y-125574637D01*
X78060273Y-125731680D01*
X78321426Y-125839853D01*
X78598665Y-125895000D01*
X78881335Y-125895000D01*
X79158574Y-125839853D01*
X79419727Y-125731680D01*
X79654759Y-125574637D01*
X79854637Y-125374759D01*
X79871849Y-125349000D01*
X83451765Y-125349000D01*
X85700506Y-127597742D01*
X85728341Y-127631659D01*
X85863709Y-127742753D01*
X86018149Y-127825303D01*
X86084058Y-127845296D01*
X86185724Y-127876136D01*
X86218924Y-127879406D01*
X86316333Y-127889000D01*
X86316339Y-127889000D01*
X86359999Y-127893300D01*
X86403659Y-127889000D01*
X90308151Y-127889000D01*
X90325363Y-127914759D01*
X90525241Y-128114637D01*
X90757759Y-128270000D01*
X90525241Y-128425363D01*
X90325363Y-128625241D01*
X90308151Y-128651000D01*
X79108236Y-128651000D01*
X74549000Y-124091765D01*
X74549000Y-119423659D01*
X74553300Y-119379999D01*
X74549000Y-119336334D01*
X74549000Y-119336333D01*
X74536136Y-119205726D01*
X74536136Y-119205724D01*
X74497437Y-119078150D01*
X74485303Y-119038149D01*
X74402753Y-118883709D01*
X74291659Y-118748341D01*
X74257741Y-118720505D01*
X72591477Y-117054242D01*
X72605000Y-116986260D01*
X72605000Y-116693740D01*
X72547932Y-116406842D01*
X72435990Y-116136589D01*
X72273475Y-115893368D01*
X72066632Y-115686525D01*
X71892240Y-115570000D01*
X72066632Y-115453475D01*
X72273475Y-115246632D01*
X72311983Y-115189000D01*
X77608151Y-115189000D01*
X77625363Y-115214759D01*
X77825241Y-115414637D01*
X77851000Y-115431849D01*
X77851001Y-115708151D01*
X77825241Y-115725363D01*
X77625363Y-115925241D01*
X77468320Y-116160273D01*
X77360147Y-116421426D01*
X77305000Y-116698665D01*
X77305000Y-116981335D01*
X77360147Y-117258574D01*
X77468320Y-117519727D01*
X77625363Y-117754759D01*
X77825241Y-117954637D01*
X78060273Y-118111680D01*
X78321426Y-118219853D01*
X78598665Y-118275000D01*
X78881335Y-118275000D01*
X79158574Y-118219853D01*
X79419727Y-118111680D01*
X79654759Y-117954637D01*
X79854637Y-117754759D01*
X80011680Y-117519727D01*
X80119853Y-117258574D01*
X80175000Y-116981335D01*
X80175000Y-116698665D01*
X80119853Y-116421426D01*
X80011680Y-116160273D01*
X79854637Y-115925241D01*
X79654759Y-115725363D01*
X79629000Y-115708151D01*
X79629000Y-115431849D01*
X79654759Y-115414637D01*
X79854637Y-115214759D01*
X80011680Y-114979727D01*
X80119853Y-114718574D01*
X80175000Y-114441335D01*
X80175000Y-114158665D01*
X80119853Y-113881426D01*
X80011680Y-113620273D01*
X79854637Y-113385241D01*
X79654759Y-113185363D01*
X79419727Y-113028320D01*
X79158574Y-112920147D01*
X78881335Y-112865000D01*
X78598665Y-112865000D01*
X78321426Y-112920147D01*
X78060273Y-113028320D01*
X77825241Y-113185363D01*
X77625363Y-113385241D01*
X77608151Y-113411000D01*
X72311983Y-113411000D01*
X72273475Y-113353368D01*
X72141620Y-113221513D01*
X72214180Y-113199502D01*
X72324494Y-113140537D01*
X72421185Y-113061185D01*
X72500537Y-112964494D01*
X72559502Y-112854180D01*
X72595812Y-112734482D01*
X72608072Y-112610000D01*
X72608072Y-110910000D01*
X72595812Y-110785518D01*
X72559502Y-110665820D01*
X72500537Y-110555506D01*
X72421185Y-110458815D01*
X72324494Y-110379463D01*
X72214180Y-110320498D01*
X72094482Y-110284188D01*
X71970000Y-110271928D01*
X70270000Y-110271928D01*
X70145518Y-110284188D01*
X70025820Y-110320498D01*
X69915506Y-110379463D01*
X69818815Y-110458815D01*
X69739463Y-110555506D01*
X69680498Y-110665820D01*
X69644188Y-110785518D01*
X69631928Y-110910000D01*
X66700000Y-110910000D01*
X66700000Y-107029040D01*
X77348091Y-107029040D01*
X77442930Y-107293881D01*
X77587615Y-107535131D01*
X77776586Y-107743519D01*
X78002580Y-107911037D01*
X78256913Y-108031246D01*
X78390961Y-108071904D01*
X78613000Y-107949915D01*
X78613000Y-106807000D01*
X78867000Y-106807000D01*
X78867000Y-107949915D01*
X79089039Y-108071904D01*
X79223087Y-108031246D01*
X79477420Y-107911037D01*
X79703414Y-107743519D01*
X79892385Y-107535131D01*
X80037070Y-107293881D01*
X80131909Y-107029040D01*
X80010624Y-106807000D01*
X78867000Y-106807000D01*
X78613000Y-106807000D01*
X77469376Y-106807000D01*
X77348091Y-107029040D01*
X66700000Y-107029040D01*
X66700000Y-106330960D01*
X77348091Y-106330960D01*
X77469376Y-106553000D01*
X78613000Y-106553000D01*
X78613000Y-105410085D01*
X78867000Y-105410085D01*
X78867000Y-106553000D01*
X80010624Y-106553000D01*
X80131909Y-106330960D01*
X80037070Y-106066119D01*
X79892385Y-105824869D01*
X79703414Y-105616481D01*
X79477420Y-105448963D01*
X79223087Y-105328754D01*
X79089039Y-105288096D01*
X78867000Y-105410085D01*
X78613000Y-105410085D01*
X78390961Y-105288096D01*
X78256913Y-105328754D01*
X78002580Y-105448963D01*
X77776586Y-105616481D01*
X77587615Y-105824869D01*
X77442930Y-106066119D01*
X77348091Y-106330960D01*
X66700000Y-106330960D01*
X66700000Y-93664952D01*
X66746660Y-93777599D01*
X67286735Y-94585879D01*
X67974121Y-95273265D01*
X68782401Y-95813340D01*
X69680514Y-96185350D01*
X70633945Y-96375000D01*
X71606055Y-96375000D01*
X72559486Y-96185350D01*
X73457599Y-95813340D01*
X73672122Y-95670000D01*
X84871928Y-95670000D01*
X84875000Y-96234250D01*
X85033750Y-96393000D01*
X86233000Y-96393000D01*
X86233000Y-95193750D01*
X86487000Y-95193750D01*
X86487000Y-96393000D01*
X87686250Y-96393000D01*
X87845000Y-96234250D01*
X87848072Y-95670000D01*
X87835812Y-95545518D01*
X87799502Y-95425820D01*
X87740537Y-95315506D01*
X87661185Y-95218815D01*
X87564494Y-95139463D01*
X87454180Y-95080498D01*
X87334482Y-95044188D01*
X87210000Y-95031928D01*
X86645750Y-95035000D01*
X86487000Y-95193750D01*
X86233000Y-95193750D01*
X86074250Y-95035000D01*
X85510000Y-95031928D01*
X85385518Y-95044188D01*
X85265820Y-95080498D01*
X85155506Y-95139463D01*
X85058815Y-95218815D01*
X84979463Y-95315506D01*
X84920498Y-95425820D01*
X84884188Y-95545518D01*
X84871928Y-95670000D01*
X73672122Y-95670000D01*
X74265879Y-95273265D01*
X74953265Y-94585879D01*
X75493340Y-93777599D01*
X75865350Y-92879486D01*
X76055000Y-91926055D01*
X76055000Y-90953945D01*
X75865350Y-90000514D01*
X75761584Y-89750000D01*
X92491928Y-89750000D01*
X92504188Y-89874482D01*
X92540498Y-89994180D01*
X92599463Y-90104494D01*
X92678815Y-90201185D01*
X92775506Y-90280537D01*
X92885820Y-90339502D01*
X93005518Y-90375812D01*
X93130000Y-90388072D01*
X93694250Y-90385000D01*
X93853000Y-90226250D01*
X93853000Y-89027000D01*
X92653750Y-89027000D01*
X92495000Y-89185750D01*
X92491928Y-89750000D01*
X75761584Y-89750000D01*
X75493340Y-89102401D01*
X74953265Y-88294121D01*
X74709144Y-88050000D01*
X92491928Y-88050000D01*
X92495000Y-88614250D01*
X92653750Y-88773000D01*
X93853000Y-88773000D01*
X93853000Y-87573750D01*
X94107000Y-87573750D01*
X94107000Y-88773000D01*
X94127000Y-88773000D01*
X94127000Y-89027000D01*
X94107000Y-89027000D01*
X94107000Y-90226250D01*
X94265750Y-90385000D01*
X94830000Y-90388072D01*
X94954482Y-90375812D01*
X95074180Y-90339502D01*
X95184494Y-90280537D01*
X95281185Y-90201185D01*
X95360537Y-90104494D01*
X95419502Y-89994180D01*
X95441513Y-89921620D01*
X95573368Y-90053475D01*
X95816589Y-90215990D01*
X96086842Y-90327932D01*
X96373740Y-90385000D01*
X96666260Y-90385000D01*
X96953158Y-90327932D01*
X97223411Y-90215990D01*
X97466632Y-90053475D01*
X97673475Y-89846632D01*
X97835990Y-89603411D01*
X97947932Y-89333158D01*
X98005000Y-89046260D01*
X98005000Y-88753740D01*
X97947932Y-88466842D01*
X97835990Y-88196589D01*
X97673475Y-87953368D01*
X97466632Y-87746525D01*
X97223411Y-87584010D01*
X96953158Y-87472068D01*
X96666260Y-87415000D01*
X96373740Y-87415000D01*
X96086842Y-87472068D01*
X95816589Y-87584010D01*
X95573368Y-87746525D01*
X95441513Y-87878380D01*
X95419502Y-87805820D01*
X95360537Y-87695506D01*
X95281185Y-87598815D01*
X95184494Y-87519463D01*
X95074180Y-87460498D01*
X94954482Y-87424188D01*
X94830000Y-87411928D01*
X94265750Y-87415000D01*
X94107000Y-87573750D01*
X93853000Y-87573750D01*
X93694250Y-87415000D01*
X93130000Y-87411928D01*
X93005518Y-87424188D01*
X92885820Y-87460498D01*
X92775506Y-87519463D01*
X92678815Y-87598815D01*
X92599463Y-87695506D01*
X92540498Y-87805820D01*
X92504188Y-87925518D01*
X92491928Y-88050000D01*
X74709144Y-88050000D01*
X74265879Y-87606735D01*
X73457599Y-87066660D01*
X73344952Y-87020000D01*
X112075048Y-87020000D01*
X111962401Y-87066660D01*
G37*
X111962401Y-87066660D02*
X111154121Y-87606735D01*
X110466735Y-88294121D01*
X109926660Y-89102401D01*
X109554650Y-90000514D01*
X109365000Y-90953945D01*
X109365000Y-91926055D01*
X109554650Y-92879486D01*
X109926660Y-93777599D01*
X110466735Y-94585879D01*
X111154121Y-95273265D01*
X111962401Y-95813340D01*
X112860514Y-96185350D01*
X113813945Y-96375000D01*
X114786055Y-96375000D01*
X115739486Y-96185350D01*
X116637599Y-95813340D01*
X117445879Y-95273265D01*
X118133265Y-94585879D01*
X118673340Y-93777599D01*
X118720001Y-93664949D01*
X118720000Y-129855048D01*
X118673340Y-129742401D01*
X118133265Y-128934121D01*
X117445879Y-128246735D01*
X116637599Y-127706660D01*
X115739486Y-127334650D01*
X114786055Y-127145000D01*
X113813945Y-127145000D01*
X112860514Y-127334650D01*
X111962401Y-127706660D01*
X111154121Y-128246735D01*
X110466735Y-128934121D01*
X109926660Y-129742401D01*
X109554650Y-130640514D01*
X109365000Y-131593945D01*
X109365000Y-132566055D01*
X109554650Y-133519486D01*
X109926660Y-134417599D01*
X110466735Y-135225879D01*
X111154121Y-135913265D01*
X111962401Y-136453340D01*
X112075048Y-136500000D01*
X73344952Y-136500000D01*
X73457599Y-136453340D01*
X74265879Y-135913265D01*
X74953265Y-135225879D01*
X75493340Y-134417599D01*
X75865350Y-133519486D01*
X76055000Y-132566055D01*
X76055000Y-131593945D01*
X75865350Y-130640514D01*
X75493340Y-129742401D01*
X74953265Y-128934121D01*
X74265879Y-128246735D01*
X73457599Y-127706660D01*
X72559486Y-127334650D01*
X71606055Y-127145000D01*
X70633945Y-127145000D01*
X69680514Y-127334650D01*
X68782401Y-127706660D01*
X67974121Y-128246735D01*
X67286735Y-128934121D01*
X66746660Y-129742401D01*
X66700000Y-129855048D01*
X66700000Y-110910000D01*
X69631928Y-110910000D01*
X69631928Y-112610000D01*
X69644188Y-112734482D01*
X69680498Y-112854180D01*
X69739463Y-112964494D01*
X69818815Y-113061185D01*
X69915506Y-113140537D01*
X70025820Y-113199502D01*
X70098380Y-113221513D01*
X69966525Y-113353368D01*
X69804010Y-113596589D01*
X69692068Y-113866842D01*
X69635000Y-114153740D01*
X69635000Y-114446260D01*
X69692068Y-114733158D01*
X69804010Y-115003411D01*
X69966525Y-115246632D01*
X70173368Y-115453475D01*
X70347760Y-115570000D01*
X70173368Y-115686525D01*
X69966525Y-115893368D01*
X69804010Y-116136589D01*
X69692068Y-116406842D01*
X69635000Y-116693740D01*
X69635000Y-116986260D01*
X69692068Y-117273158D01*
X69804010Y-117543411D01*
X69966525Y-117786632D01*
X70173368Y-117993475D01*
X70355534Y-118115195D01*
X70238645Y-118184822D01*
X70022412Y-118379731D01*
X69848359Y-118613080D01*
X69723175Y-118875901D01*
X69678524Y-119023110D01*
X69799845Y-119253000D01*
X70993000Y-119253000D01*
X70993000Y-119233000D01*
X71247000Y-119233000D01*
X71247000Y-119253000D01*
X71267000Y-119253000D01*
X71267000Y-119507000D01*
X71247000Y-119507000D01*
X71247000Y-119527000D01*
X70993000Y-119527000D01*
X70993000Y-119507000D01*
X69799845Y-119507000D01*
X69678524Y-119736890D01*
X69723175Y-119884099D01*
X69848359Y-120146920D01*
X70022412Y-120380269D01*
X70238645Y-120575178D01*
X70355534Y-120644805D01*
X70173368Y-120766525D01*
X69966525Y-120973368D01*
X69804010Y-121216589D01*
X69692068Y-121486842D01*
X69635000Y-121773740D01*
X69635000Y-122066260D01*
X69692068Y-122353158D01*
X69804010Y-122623411D01*
X69966525Y-122866632D01*
X70173368Y-123073475D01*
X70347760Y-123190000D01*
X70173368Y-123306525D01*
X69966525Y-123513368D01*
X69804010Y-123756589D01*
X69692068Y-124026842D01*
X69635000Y-124313740D01*
X69635000Y-124606260D01*
X69692068Y-124893158D01*
X69804010Y-125163411D01*
X69966525Y-125406632D01*
X70173368Y-125613475D01*
X70416589Y-125775990D01*
X70686842Y-125887932D01*
X70973740Y-125945000D01*
X71266260Y-125945000D01*
X71553158Y-125887932D01*
X71823411Y-125775990D01*
X72066632Y-125613475D01*
X72273475Y-125406632D01*
X72435990Y-125163411D01*
X72547932Y-124893158D01*
X72605000Y-124606260D01*
X72605000Y-124313740D01*
X72547932Y-124026842D01*
X72435990Y-123756589D01*
X72273475Y-123513368D01*
X72066632Y-123306525D01*
X71892240Y-123190000D01*
X72066632Y-123073475D01*
X72273475Y-122866632D01*
X72435990Y-122623411D01*
X72547932Y-122353158D01*
X72605000Y-122066260D01*
X72605000Y-121773740D01*
X72547932Y-121486842D01*
X72435990Y-121216589D01*
X72273475Y-120973368D01*
X72066632Y-120766525D01*
X71884466Y-120644805D01*
X72001355Y-120575178D01*
X72217588Y-120380269D01*
X72391641Y-120146920D01*
X72516825Y-119884099D01*
X72561476Y-119736890D01*
X72440156Y-119507002D01*
X72529766Y-119507002D01*
X72771000Y-119748236D01*
X72771001Y-124416330D01*
X72766700Y-124460000D01*
X72783864Y-124634274D01*
X72834698Y-124801852D01*
X72902661Y-124929000D01*
X72917248Y-124956291D01*
X73028342Y-125091659D01*
X73062259Y-125119494D01*
X78080506Y-130137742D01*
X78108341Y-130171659D01*
X78243709Y-130282753D01*
X78398149Y-130365303D01*
X78492758Y-130394002D01*
X78565725Y-130416136D01*
X78582325Y-130417771D01*
X78696333Y-130429000D01*
X78696340Y-130429000D01*
X78740000Y-130433300D01*
X78783660Y-130429000D01*
X90308151Y-130429000D01*
X90325363Y-130454759D01*
X90525241Y-130654637D01*
X90757759Y-130810000D01*
X90525241Y-130965363D01*
X90325363Y-131165241D01*
X90168320Y-131400273D01*
X90060147Y-131661426D01*
X90005000Y-131938665D01*
X90005000Y-132221335D01*
X90060147Y-132498574D01*
X90168320Y-132759727D01*
X90325363Y-132994759D01*
X90525241Y-133194637D01*
X90760273Y-133351680D01*
X91021426Y-133459853D01*
X91298665Y-133515000D01*
X91581335Y-133515000D01*
X91858574Y-133459853D01*
X92119727Y-133351680D01*
X92354759Y-133194637D01*
X92554637Y-132994759D01*
X92711680Y-132759727D01*
X92819853Y-132498574D01*
X92875000Y-132221335D01*
X92875000Y-131938665D01*
X92819853Y-131661426D01*
X92711680Y-131400273D01*
X92554637Y-131165241D01*
X92354759Y-130965363D01*
X92122241Y-130810000D01*
X92354759Y-130654637D01*
X92554637Y-130454759D01*
X92711680Y-130219727D01*
X92819853Y-129958574D01*
X92875000Y-129681335D01*
X92875000Y-129398665D01*
X92819853Y-129121426D01*
X92711680Y-128860273D01*
X92554637Y-128625241D01*
X92354759Y-128425363D01*
X92122241Y-128270000D01*
X92354759Y-128114637D01*
X92554637Y-127914759D01*
X92711680Y-127679727D01*
X92819853Y-127418574D01*
X92875000Y-127141335D01*
X92875000Y-126858665D01*
X92819853Y-126581426D01*
X92711680Y-126320273D01*
X92554637Y-126085241D01*
X92354759Y-125885363D01*
X92122241Y-125730000D01*
X92354759Y-125574637D01*
X92554637Y-125374759D01*
X92711680Y-125139727D01*
X92819853Y-124878574D01*
X92875000Y-124601335D01*
X92875000Y-124318665D01*
X92819853Y-124041426D01*
X92711680Y-123780273D01*
X92554637Y-123545241D01*
X92354759Y-123345363D01*
X92122241Y-123190000D01*
X92354759Y-123034637D01*
X92554637Y-122834759D01*
X92711680Y-122599727D01*
X92819853Y-122338574D01*
X92875000Y-122061335D01*
X92875000Y-121778665D01*
X92819853Y-121501426D01*
X92711680Y-121240273D01*
X92554637Y-121005241D01*
X92354759Y-120805363D01*
X92122241Y-120650000D01*
X92354759Y-120494637D01*
X92554637Y-120294759D01*
X92711680Y-120059727D01*
X92819853Y-119798574D01*
X92875000Y-119521335D01*
X92875000Y-119238665D01*
X92819853Y-118961426D01*
X92711680Y-118700273D01*
X92554637Y-118465241D01*
X92354759Y-118265363D01*
X92119727Y-118108320D01*
X92109135Y-118103933D01*
X92295131Y-117992385D01*
X92503519Y-117803414D01*
X92671037Y-117577420D01*
X92791246Y-117323087D01*
X92831904Y-117189039D01*
X92709915Y-116967000D01*
X91567000Y-116967000D01*
X91567000Y-116987000D01*
X91313000Y-116987000D01*
X91313000Y-116967000D01*
X91293000Y-116967000D01*
X91293000Y-116713000D01*
X91313000Y-116713000D01*
X91313000Y-116693000D01*
X91567000Y-116693000D01*
X91567000Y-116713000D01*
X92709915Y-116713000D01*
X92717790Y-116698665D01*
X97625000Y-116698665D01*
X97625000Y-116981335D01*
X97680147Y-117258574D01*
X97788320Y-117519727D01*
X97945363Y-117754759D01*
X98145241Y-117954637D01*
X98377759Y-118110000D01*
X98145241Y-118265363D01*
X97945363Y-118465241D01*
X97788320Y-118700273D01*
X97680147Y-118961426D01*
X97625000Y-119238665D01*
X97625000Y-119521335D01*
X97680147Y-119798574D01*
X97788320Y-120059727D01*
X97945363Y-120294759D01*
X98145241Y-120494637D01*
X98377759Y-120650000D01*
X98145241Y-120805363D01*
X97945363Y-121005241D01*
X97788320Y-121240273D01*
X97680147Y-121501426D01*
X97625000Y-121778665D01*
X97625000Y-122061335D01*
X97680147Y-122338574D01*
X97788320Y-122599727D01*
X97945363Y-122834759D01*
X98145241Y-123034637D01*
X98377759Y-123190000D01*
X98145241Y-123345363D01*
X97945363Y-123545241D01*
X97788320Y-123780273D01*
X97680147Y-124041426D01*
X97625000Y-124318665D01*
X97625000Y-124601335D01*
X97680147Y-124878574D01*
X97788320Y-125139727D01*
X97945363Y-125374759D01*
X98145241Y-125574637D01*
X98377759Y-125730000D01*
X98145241Y-125885363D01*
X97945363Y-126085241D01*
X97788320Y-126320273D01*
X97680147Y-126581426D01*
X97625000Y-126858665D01*
X97625000Y-127141335D01*
X97680147Y-127418574D01*
X97788320Y-127679727D01*
X97945363Y-127914759D01*
X98145241Y-128114637D01*
X98377759Y-128270000D01*
X98145241Y-128425363D01*
X97945363Y-128625241D01*
X97788320Y-128860273D01*
X97680147Y-129121426D01*
X97625000Y-129398665D01*
X97625000Y-129681335D01*
X97680147Y-129958574D01*
X97788320Y-130219727D01*
X97945363Y-130454759D01*
X98145241Y-130654637D01*
X98377759Y-130810000D01*
X98145241Y-130965363D01*
X97945363Y-131165241D01*
X97788320Y-131400273D01*
X97680147Y-131661426D01*
X97625000Y-131938665D01*
X97625000Y-132221335D01*
X97680147Y-132498574D01*
X97788320Y-132759727D01*
X97945363Y-132994759D01*
X98145241Y-133194637D01*
X98380273Y-133351680D01*
X98641426Y-133459853D01*
X98918665Y-133515000D01*
X99201335Y-133515000D01*
X99231721Y-133508956D01*
X100940506Y-135217742D01*
X100968341Y-135251659D01*
X101103709Y-135362753D01*
X101258149Y-135445303D01*
X101324058Y-135465296D01*
X101425724Y-135496136D01*
X101458924Y-135499406D01*
X101556333Y-135509000D01*
X101556339Y-135509000D01*
X101599999Y-135513300D01*
X101643659Y-135509000D01*
X103008151Y-135509000D01*
X103025363Y-135534759D01*
X103225241Y-135734637D01*
X103460273Y-135891680D01*
X103721426Y-135999853D01*
X103998665Y-136055000D01*
X104281335Y-136055000D01*
X104558574Y-135999853D01*
X104819727Y-135891680D01*
X105054759Y-135734637D01*
X105254637Y-135534759D01*
X105411680Y-135299727D01*
X105519853Y-135038574D01*
X105575000Y-134761335D01*
X105575000Y-134478665D01*
X105519853Y-134201426D01*
X105411680Y-133940273D01*
X105254637Y-133705241D01*
X105054759Y-133505363D01*
X104819727Y-133348320D01*
X104558574Y-133240147D01*
X104281335Y-133185000D01*
X103998665Y-133185000D01*
X103721426Y-133240147D01*
X103460273Y-133348320D01*
X103225241Y-133505363D01*
X103025363Y-133705241D01*
X103008151Y-133731000D01*
X101968236Y-133731000D01*
X100488956Y-132251721D01*
X100495000Y-132221335D01*
X100495000Y-131938665D01*
X100439853Y-131661426D01*
X100331680Y-131400273D01*
X100174637Y-131165241D01*
X99974759Y-130965363D01*
X99742241Y-130810000D01*
X99974759Y-130654637D01*
X100174637Y-130454759D01*
X100331680Y-130219727D01*
X100439853Y-129958574D01*
X100495000Y-129681335D01*
X100495000Y-129398665D01*
X100488956Y-129368279D01*
X102706809Y-127150427D01*
X102760147Y-127418574D01*
X102868320Y-127679727D01*
X103025363Y-127914759D01*
X103225241Y-128114637D01*
X103460273Y-128271680D01*
X103721426Y-128379853D01*
X103998665Y-128435000D01*
X104281335Y-128435000D01*
X104558574Y-128379853D01*
X104819727Y-128271680D01*
X105054759Y-128114637D01*
X105254637Y-127914759D01*
X105271849Y-127889000D01*
X110192340Y-127889000D01*
X110236000Y-127893300D01*
X110279660Y-127889000D01*
X110279667Y-127889000D01*
X110410274Y-127876136D01*
X110577851Y-127825303D01*
X110732291Y-127742753D01*
X110867659Y-127631659D01*
X110895499Y-127597736D01*
X112865743Y-125627493D01*
X112899659Y-125599659D01*
X113010753Y-125464291D01*
X113093303Y-125309851D01*
X113144136Y-125142274D01*
X113157000Y-125011667D01*
X113157000Y-125011660D01*
X113161300Y-124968000D01*
X113157000Y-124924340D01*
X113157000Y-124635983D01*
X113214632Y-124597475D01*
X113421475Y-124390632D01*
X113583990Y-124147411D01*
X113695932Y-123877158D01*
X113753000Y-123590260D01*
X113753000Y-123297740D01*
X113695932Y-123010842D01*
X113583990Y-122740589D01*
X113421475Y-122497368D01*
X113289620Y-122365513D01*
X113362180Y-122343502D01*
X113472494Y-122284537D01*
X113569185Y-122205185D01*
X113648537Y-122108494D01*
X113707502Y-121998180D01*
X113743812Y-121878482D01*
X113756072Y-121754000D01*
X113753000Y-121189750D01*
X113594250Y-121031000D01*
X112395000Y-121031000D01*
X112395000Y-121051000D01*
X112141000Y-121051000D01*
X112141000Y-121031000D01*
X110941750Y-121031000D01*
X110783000Y-121189750D01*
X110779928Y-121754000D01*
X110792188Y-121878482D01*
X110828498Y-121998180D01*
X110887463Y-122108494D01*
X110966815Y-122205185D01*
X111063506Y-122284537D01*
X111173820Y-122343502D01*
X111246380Y-122365513D01*
X111114525Y-122497368D01*
X110952010Y-122740589D01*
X110840068Y-123010842D01*
X110783000Y-123297740D01*
X110783000Y-123590260D01*
X110840068Y-123877158D01*
X110952010Y-124147411D01*
X111114525Y-124390632D01*
X111321368Y-124597475D01*
X111357288Y-124621476D01*
X109867765Y-126111000D01*
X105271849Y-126111000D01*
X105254637Y-126085241D01*
X105054759Y-125885363D01*
X104819727Y-125728320D01*
X104558574Y-125620147D01*
X104290427Y-125566809D01*
X104737743Y-125119493D01*
X104771659Y-125091659D01*
X104882753Y-124956291D01*
X104965303Y-124801851D01*
X104994002Y-124707242D01*
X105012216Y-124647198D01*
X105086632Y-124597475D01*
X105293475Y-124390632D01*
X105455990Y-124147411D01*
X105567932Y-123877158D01*
X105625000Y-123590260D01*
X105625000Y-123297740D01*
X105567932Y-123010842D01*
X105455990Y-122740589D01*
X105293475Y-122497368D01*
X105161620Y-122365513D01*
X105234180Y-122343502D01*
X105344494Y-122284537D01*
X105441185Y-122205185D01*
X105520537Y-122108494D01*
X105579502Y-121998180D01*
X105615812Y-121878482D01*
X105628072Y-121754000D01*
X105625000Y-121189750D01*
X105466250Y-121031000D01*
X104267000Y-121031000D01*
X104267000Y-121051000D01*
X104013000Y-121051000D01*
X104013000Y-121031000D01*
X102813750Y-121031000D01*
X102655000Y-121189750D01*
X102651928Y-121754000D01*
X102664188Y-121878482D01*
X102700498Y-121998180D01*
X102759463Y-122108494D01*
X102838815Y-122205185D01*
X102935506Y-122284537D01*
X103045820Y-122343502D01*
X103118380Y-122365513D01*
X102986525Y-122497368D01*
X102824010Y-122740589D01*
X102712068Y-123010842D01*
X102655000Y-123297740D01*
X102655000Y-123590260D01*
X102712068Y-123877158D01*
X102824010Y-124147411D01*
X102972749Y-124370015D01*
X100493191Y-126849573D01*
X100488956Y-126828279D01*
X102197743Y-125119493D01*
X102231659Y-125091659D01*
X102342753Y-124956291D01*
X102425303Y-124801851D01*
X102445296Y-124735942D01*
X102476136Y-124634276D01*
X102479760Y-124597475D01*
X102489000Y-124503667D01*
X102489000Y-124503661D01*
X102493300Y-124460001D01*
X102489000Y-124416341D01*
X102489000Y-120054000D01*
X102651928Y-120054000D01*
X102655000Y-120618250D01*
X102813750Y-120777000D01*
X104013000Y-120777000D01*
X104013000Y-119577750D01*
X104267000Y-119577750D01*
X104267000Y-120777000D01*
X105466250Y-120777000D01*
X105625000Y-120618250D01*
X105628072Y-120054000D01*
X110779928Y-120054000D01*
X110783000Y-120618250D01*
X110941750Y-120777000D01*
X112141000Y-120777000D01*
X112141000Y-119577750D01*
X112395000Y-119577750D01*
X112395000Y-120777000D01*
X113594250Y-120777000D01*
X113753000Y-120618250D01*
X113756072Y-120054000D01*
X113743812Y-119929518D01*
X113707502Y-119809820D01*
X113648537Y-119699506D01*
X113569185Y-119602815D01*
X113472494Y-119523463D01*
X113362180Y-119464498D01*
X113242482Y-119428188D01*
X113118000Y-119415928D01*
X112553750Y-119419000D01*
X112395000Y-119577750D01*
X112141000Y-119577750D01*
X111982250Y-119419000D01*
X111418000Y-119415928D01*
X111293518Y-119428188D01*
X111173820Y-119464498D01*
X111063506Y-119523463D01*
X110966815Y-119602815D01*
X110887463Y-119699506D01*
X110828498Y-119809820D01*
X110792188Y-119929518D01*
X110779928Y-120054000D01*
X105628072Y-120054000D01*
X105615812Y-119929518D01*
X105579502Y-119809820D01*
X105520537Y-119699506D01*
X105441185Y-119602815D01*
X105344494Y-119523463D01*
X105234180Y-119464498D01*
X105114482Y-119428188D01*
X104990000Y-119415928D01*
X104425750Y-119419000D01*
X104267000Y-119577750D01*
X104013000Y-119577750D01*
X103854250Y-119419000D01*
X103290000Y-119415928D01*
X103165518Y-119428188D01*
X103045820Y-119464498D01*
X102935506Y-119523463D01*
X102838815Y-119602815D01*
X102759463Y-119699506D01*
X102700498Y-119809820D01*
X102664188Y-119929518D01*
X102651928Y-120054000D01*
X102489000Y-120054000D01*
X102489000Y-117716235D01*
X104737743Y-115467493D01*
X104771659Y-115439659D01*
X104882753Y-115304291D01*
X104965303Y-115149851D01*
X104999408Y-115037420D01*
X105016136Y-114982276D01*
X105024462Y-114897740D01*
X105029000Y-114851667D01*
X105029000Y-114851661D01*
X105033300Y-114808001D01*
X105029000Y-114764341D01*
X105029000Y-114668072D01*
X105140000Y-114668072D01*
X105264482Y-114655812D01*
X105384180Y-114619502D01*
X105494494Y-114560537D01*
X105591185Y-114481185D01*
X105670537Y-114384494D01*
X105729502Y-114274180D01*
X105762496Y-114165413D01*
X110784192Y-114165413D01*
X110879956Y-114429814D01*
X111169571Y-114570704D01*
X111481108Y-114652384D01*
X111802595Y-114671718D01*
X112121675Y-114627961D01*
X112426088Y-114522795D01*
X112600044Y-114429814D01*
X112695808Y-114165413D01*
X111740000Y-113209605D01*
X110784192Y-114165413D01*
X105762496Y-114165413D01*
X105765812Y-114154482D01*
X105778072Y-114030000D01*
X105778072Y-113092595D01*
X110098282Y-113092595D01*
X110142039Y-113411675D01*
X110247205Y-113716088D01*
X110340186Y-113890044D01*
X110604587Y-113985808D01*
X111560395Y-113030000D01*
X111919605Y-113030000D01*
X112875413Y-113985808D01*
X113139814Y-113890044D01*
X113280704Y-113600429D01*
X113362384Y-113288892D01*
X113381718Y-112967405D01*
X113337961Y-112648325D01*
X113232795Y-112343912D01*
X113139814Y-112169956D01*
X112875413Y-112074192D01*
X111919605Y-113030000D01*
X111560395Y-113030000D01*
X110604587Y-112074192D01*
X110340186Y-112169956D01*
X110199296Y-112459571D01*
X110117616Y-112771108D01*
X110098282Y-113092595D01*
X105778072Y-113092595D01*
X105778072Y-112030000D01*
X105765812Y-111905518D01*
X105762497Y-111894587D01*
X110784192Y-111894587D01*
X111740000Y-112850395D01*
X112695808Y-111894587D01*
X112600044Y-111630186D01*
X112310429Y-111489296D01*
X111998892Y-111407616D01*
X111677405Y-111388282D01*
X111358325Y-111432039D01*
X111053912Y-111537205D01*
X110879956Y-111630186D01*
X110784192Y-111894587D01*
X105762497Y-111894587D01*
X105729502Y-111785820D01*
X105670537Y-111675506D01*
X105591185Y-111578815D01*
X105494494Y-111499463D01*
X105384180Y-111440498D01*
X105264482Y-111404188D01*
X105140000Y-111391928D01*
X103140000Y-111391928D01*
X103015518Y-111404188D01*
X102895820Y-111440498D01*
X102785506Y-111499463D01*
X102688815Y-111578815D01*
X102609463Y-111675506D01*
X102550498Y-111785820D01*
X102514188Y-111905518D01*
X102501928Y-112030000D01*
X102501928Y-114030000D01*
X102514188Y-114154482D01*
X102550498Y-114274180D01*
X102609463Y-114384494D01*
X102688815Y-114481185D01*
X102785506Y-114560537D01*
X102895820Y-114619502D01*
X103015518Y-114655812D01*
X103033210Y-114657554D01*
X101002259Y-116688506D01*
X100968342Y-116716341D01*
X100940507Y-116750258D01*
X100940505Y-116750260D01*
X100857248Y-116851709D01*
X100774698Y-117006148D01*
X100723864Y-117173726D01*
X100706700Y-117348000D01*
X100711001Y-117391670D01*
X100711000Y-124091764D01*
X100493191Y-124309573D01*
X100439853Y-124041426D01*
X100331680Y-123780273D01*
X100174637Y-123545241D01*
X99974759Y-123345363D01*
X99742241Y-123190000D01*
X99974759Y-123034637D01*
X100174637Y-122834759D01*
X100331680Y-122599727D01*
X100439853Y-122338574D01*
X100495000Y-122061335D01*
X100495000Y-121778665D01*
X100439853Y-121501426D01*
X100331680Y-121240273D01*
X100174637Y-121005241D01*
X99974759Y-120805363D01*
X99742241Y-120650000D01*
X99974759Y-120494637D01*
X100174637Y-120294759D01*
X100331680Y-120059727D01*
X100439853Y-119798574D01*
X100495000Y-119521335D01*
X100495000Y-119238665D01*
X100439853Y-118961426D01*
X100331680Y-118700273D01*
X100174637Y-118465241D01*
X99974759Y-118265363D01*
X99742241Y-118110000D01*
X99974759Y-117954637D01*
X100174637Y-117754759D01*
X100331680Y-117519727D01*
X100439853Y-117258574D01*
X100495000Y-116981335D01*
X100495000Y-116698665D01*
X100439853Y-116421426D01*
X100331680Y-116160273D01*
X100174637Y-115925241D01*
X99974759Y-115725363D01*
X99739727Y-115568320D01*
X99729135Y-115563933D01*
X99915131Y-115452385D01*
X100123519Y-115263414D01*
X100291037Y-115037420D01*
X100411246Y-114783087D01*
X100451904Y-114649039D01*
X100329915Y-114427000D01*
X99187000Y-114427000D01*
X99187000Y-114447000D01*
X98933000Y-114447000D01*
X98933000Y-114427000D01*
X97790085Y-114427000D01*
X97668096Y-114649039D01*
X97708754Y-114783087D01*
X97828963Y-115037420D01*
X97996481Y-115263414D01*
X98204869Y-115452385D01*
X98390865Y-115563933D01*
X98380273Y-115568320D01*
X98145241Y-115725363D01*
X97945363Y-115925241D01*
X97788320Y-116160273D01*
X97680147Y-116421426D01*
X97625000Y-116698665D01*
X92717790Y-116698665D01*
X92831904Y-116490961D01*
X92791246Y-116356913D01*
X92671037Y-116102580D01*
X92503519Y-115876586D01*
X92295131Y-115687615D01*
X92109135Y-115576067D01*
X92119727Y-115571680D01*
X92354759Y-115414637D01*
X92554637Y-115214759D01*
X92711680Y-114979727D01*
X92819853Y-114718574D01*
X92875000Y-114441335D01*
X92875000Y-114158665D01*
X92819853Y-113881426D01*
X92711680Y-113620273D01*
X92554637Y-113385241D01*
X92354759Y-113185363D01*
X92122241Y-113030000D01*
X92354759Y-112874637D01*
X92554637Y-112674759D01*
X92711680Y-112439727D01*
X92819853Y-112178574D01*
X92875000Y-111901335D01*
X92875000Y-111618665D01*
X92819853Y-111341426D01*
X92711680Y-111080273D01*
X92554637Y-110845241D01*
X92354759Y-110645363D01*
X92122241Y-110490000D01*
X92354759Y-110334637D01*
X92554637Y-110134759D01*
X92711680Y-109899727D01*
X92819853Y-109638574D01*
X92875000Y-109361335D01*
X92875000Y-109078665D01*
X92819853Y-108801426D01*
X92711680Y-108540273D01*
X92554637Y-108305241D01*
X92354759Y-108105363D01*
X92122241Y-107950000D01*
X92354759Y-107794637D01*
X92554637Y-107594759D01*
X92711680Y-107359727D01*
X92819853Y-107098574D01*
X92875000Y-106821335D01*
X92875000Y-106538665D01*
X92819853Y-106261426D01*
X92711680Y-106000273D01*
X92554637Y-105765241D01*
X92354759Y-105565363D01*
X92122241Y-105410000D01*
X92354759Y-105254637D01*
X92554637Y-105054759D01*
X92711680Y-104819727D01*
X92819853Y-104558574D01*
X92875000Y-104281335D01*
X92875000Y-103998665D01*
X92819853Y-103721426D01*
X92711680Y-103460273D01*
X92554637Y-103225241D01*
X92354759Y-103025363D01*
X92122241Y-102870000D01*
X92354759Y-102714637D01*
X92554637Y-102514759D01*
X92711680Y-102279727D01*
X92819853Y-102018574D01*
X92875000Y-101741335D01*
X92875000Y-101458665D01*
X92819853Y-101181426D01*
X92711680Y-100920273D01*
X92554637Y-100685241D01*
X92356039Y-100486643D01*
X92364482Y-100485812D01*
X92484180Y-100449502D01*
X92594494Y-100390537D01*
X92691185Y-100311185D01*
X92770537Y-100214494D01*
X92829502Y-100104180D01*
X92865812Y-99984482D01*
X92878072Y-99860000D01*
X92878072Y-98918665D01*
X97625000Y-98918665D01*
X97625000Y-99201335D01*
X97680147Y-99478574D01*
X97788320Y-99739727D01*
X97945363Y-99974759D01*
X98145241Y-100174637D01*
X98377759Y-100330000D01*
X98145241Y-100485363D01*
X97945363Y-100685241D01*
X97788320Y-100920273D01*
X97680147Y-101181426D01*
X97625000Y-101458665D01*
X97625000Y-101741335D01*
X97680147Y-102018574D01*
X97788320Y-102279727D01*
X97945363Y-102514759D01*
X98145241Y-102714637D01*
X98377759Y-102870000D01*
X98145241Y-103025363D01*
X97945363Y-103225241D01*
X97788320Y-103460273D01*
X97680147Y-103721426D01*
X97625000Y-103998665D01*
X97625000Y-104281335D01*
X97680147Y-104558574D01*
X97788320Y-104819727D01*
X97945363Y-105054759D01*
X98145241Y-105254637D01*
X98377759Y-105410000D01*
X98145241Y-105565363D01*
X97945363Y-105765241D01*
X97788320Y-106000273D01*
X97680147Y-106261426D01*
X97625000Y-106538665D01*
X97625000Y-106821335D01*
X97680147Y-107098574D01*
X97788320Y-107359727D01*
X97945363Y-107594759D01*
X98145241Y-107794637D01*
X98377759Y-107950000D01*
X98145241Y-108105363D01*
X97945363Y-108305241D01*
X97788320Y-108540273D01*
X97680147Y-108801426D01*
X97625000Y-109078665D01*
X97625000Y-109361335D01*
X97680147Y-109638574D01*
X97788320Y-109899727D01*
X97945363Y-110134759D01*
X98145241Y-110334637D01*
X98377759Y-110490000D01*
X98145241Y-110645363D01*
X97945363Y-110845241D01*
X97788320Y-111080273D01*
X97680147Y-111341426D01*
X97625000Y-111618665D01*
X97625000Y-111901335D01*
X97680147Y-112178574D01*
X97788320Y-112439727D01*
X97945363Y-112674759D01*
X98145241Y-112874637D01*
X98380273Y-113031680D01*
X98390865Y-113036067D01*
X98204869Y-113147615D01*
X97996481Y-113336586D01*
X97828963Y-113562580D01*
X97708754Y-113816913D01*
X97668096Y-113950961D01*
X97790085Y-114173000D01*
X98933000Y-114173000D01*
X98933000Y-114153000D01*
X99187000Y-114153000D01*
X99187000Y-114173000D01*
X100329915Y-114173000D01*
X100451904Y-113950961D01*
X100411246Y-113816913D01*
X100291037Y-113562580D01*
X100123519Y-113336586D01*
X99915131Y-113147615D01*
X99729135Y-113036067D01*
X99739727Y-113031680D01*
X99974759Y-112874637D01*
X100174637Y-112674759D01*
X100331680Y-112439727D01*
X100439853Y-112178574D01*
X100495000Y-111901335D01*
X100495000Y-111618665D01*
X100439853Y-111341426D01*
X100331680Y-111080273D01*
X100174637Y-110845241D01*
X99974759Y-110645363D01*
X99742241Y-110490000D01*
X99974759Y-110334637D01*
X100174637Y-110134759D01*
X100331680Y-109899727D01*
X100439853Y-109638574D01*
X100495000Y-109361335D01*
X100495000Y-109078665D01*
X100439853Y-108801426D01*
X100331680Y-108540273D01*
X100174637Y-108305241D01*
X99974759Y-108105363D01*
X99742241Y-107950000D01*
X99974759Y-107794637D01*
X100174637Y-107594759D01*
X100331680Y-107359727D01*
X100439853Y-107098574D01*
X100495000Y-106821335D01*
X100495000Y-106538665D01*
X100439853Y-106261426D01*
X100331680Y-106000273D01*
X100174637Y-105765241D01*
X99974759Y-105565363D01*
X99742241Y-105410000D01*
X99974759Y-105254637D01*
X100174637Y-105054759D01*
X100331680Y-104819727D01*
X100439853Y-104558574D01*
X100495000Y-104281335D01*
X100495000Y-103998665D01*
X105245000Y-103998665D01*
X105245000Y-104281335D01*
X105300147Y-104558574D01*
X105408320Y-104819727D01*
X105565363Y-105054759D01*
X105765241Y-105254637D01*
X106000273Y-105411680D01*
X106261426Y-105519853D01*
X106538665Y-105575000D01*
X106821335Y-105575000D01*
X107098574Y-105519853D01*
X107359727Y-105411680D01*
X107594759Y-105254637D01*
X107794637Y-105054759D01*
X107951680Y-104819727D01*
X108059853Y-104558574D01*
X108115000Y-104281335D01*
X108115000Y-103998665D01*
X108059853Y-103721426D01*
X107951680Y-103460273D01*
X107794637Y-103225241D01*
X107594759Y-103025363D01*
X107359727Y-102868320D01*
X107098574Y-102760147D01*
X106821335Y-102705000D01*
X106538665Y-102705000D01*
X106261426Y-102760147D01*
X106000273Y-102868320D01*
X105765241Y-103025363D01*
X105565363Y-103225241D01*
X105408320Y-103460273D01*
X105300147Y-103721426D01*
X105245000Y-103998665D01*
X100495000Y-103998665D01*
X100439853Y-103721426D01*
X100331680Y-103460273D01*
X100174637Y-103225241D01*
X99974759Y-103025363D01*
X99742241Y-102870000D01*
X99974759Y-102714637D01*
X100174637Y-102514759D01*
X100217907Y-102450000D01*
X110271928Y-102450000D01*
X110284188Y-102574482D01*
X110320498Y-102694180D01*
X110379463Y-102804494D01*
X110458815Y-102901185D01*
X110555506Y-102980537D01*
X110665820Y-103039502D01*
X110785518Y-103075812D01*
X110910000Y-103088072D01*
X111474250Y-103085000D01*
X111633000Y-102926250D01*
X111633000Y-101727000D01*
X111887000Y-101727000D01*
X111887000Y-102926250D01*
X112045750Y-103085000D01*
X112610000Y-103088072D01*
X112734482Y-103075812D01*
X112854180Y-103039502D01*
X112964494Y-102980537D01*
X113061185Y-102901185D01*
X113140537Y-102804494D01*
X113199502Y-102694180D01*
X113235812Y-102574482D01*
X113248072Y-102450000D01*
X113245000Y-101885750D01*
X113086250Y-101727000D01*
X111887000Y-101727000D01*
X111633000Y-101727000D01*
X110433750Y-101727000D01*
X110275000Y-101885750D01*
X110271928Y-102450000D01*
X100217907Y-102450000D01*
X100331680Y-102279727D01*
X100439853Y-102018574D01*
X100495000Y-101741335D01*
X100495000Y-101458665D01*
X100439853Y-101181426D01*
X100331680Y-100920273D01*
X100174637Y-100685241D01*
X99974759Y-100485363D01*
X99742241Y-100330000D01*
X99974759Y-100174637D01*
X100174637Y-99974759D01*
X100331680Y-99739727D01*
X100439853Y-99478574D01*
X100495000Y-99201335D01*
X100495000Y-98918665D01*
X100439853Y-98641426D01*
X100331680Y-98380273D01*
X100174637Y-98145241D01*
X99974759Y-97945363D01*
X99739727Y-97788320D01*
X99478574Y-97680147D01*
X99201335Y-97625000D01*
X98918665Y-97625000D01*
X98641426Y-97680147D01*
X98380273Y-97788320D01*
X98145241Y-97945363D01*
X97945363Y-98145241D01*
X97788320Y-98380273D01*
X97680147Y-98641426D01*
X97625000Y-98918665D01*
X92878072Y-98918665D01*
X92878072Y-98879163D01*
X94348236Y-97409000D01*
X105548151Y-97409000D01*
X105565363Y-97434759D01*
X105765241Y-97634637D01*
X106000273Y-97791680D01*
X106261426Y-97899853D01*
X106538665Y-97955000D01*
X106821335Y-97955000D01*
X107098574Y-97899853D01*
X107359727Y-97791680D01*
X107594759Y-97634637D01*
X107794637Y-97434759D01*
X107811849Y-97409000D01*
X108851765Y-97409000D01*
X110288523Y-98845758D01*
X110275000Y-98913740D01*
X110275000Y-99206260D01*
X110332068Y-99493158D01*
X110444010Y-99763411D01*
X110606525Y-100006632D01*
X110738380Y-100138487D01*
X110665820Y-100160498D01*
X110555506Y-100219463D01*
X110458815Y-100298815D01*
X110379463Y-100395506D01*
X110320498Y-100505820D01*
X110284188Y-100625518D01*
X110271928Y-100750000D01*
X110275000Y-101314250D01*
X110433750Y-101473000D01*
X111633000Y-101473000D01*
X111633000Y-101453000D01*
X111887000Y-101453000D01*
X111887000Y-101473000D01*
X113086250Y-101473000D01*
X113245000Y-101314250D01*
X113248072Y-100750000D01*
X113235812Y-100625518D01*
X113199502Y-100505820D01*
X113140537Y-100395506D01*
X113061185Y-100298815D01*
X112964494Y-100219463D01*
X112854180Y-100160498D01*
X112781620Y-100138487D01*
X112913475Y-100006632D01*
X113075990Y-99763411D01*
X113187932Y-99493158D01*
X113245000Y-99206260D01*
X113245000Y-98913740D01*
X113187932Y-98626842D01*
X113075990Y-98356589D01*
X112913475Y-98113368D01*
X112706632Y-97906525D01*
X112463411Y-97744010D01*
X112193158Y-97632068D01*
X111906260Y-97575000D01*
X111613740Y-97575000D01*
X111545758Y-97588523D01*
X109879499Y-95922264D01*
X109851659Y-95888341D01*
X109716291Y-95777247D01*
X109561851Y-95694697D01*
X109394274Y-95643864D01*
X109263667Y-95631000D01*
X109263660Y-95631000D01*
X109220000Y-95626700D01*
X109176340Y-95631000D01*
X107811849Y-95631000D01*
X107794637Y-95605241D01*
X107594759Y-95405363D01*
X107359727Y-95248320D01*
X107098574Y-95140147D01*
X106821335Y-95085000D01*
X106538665Y-95085000D01*
X106261426Y-95140147D01*
X106000273Y-95248320D01*
X105765241Y-95405363D01*
X105565363Y-95605241D01*
X105548151Y-95631000D01*
X94023659Y-95631000D01*
X93979999Y-95626700D01*
X93936339Y-95631000D01*
X93936333Y-95631000D01*
X93838924Y-95640594D01*
X93805724Y-95643864D01*
X93704058Y-95674704D01*
X93638149Y-95694697D01*
X93483709Y-95777247D01*
X93348341Y-95888341D01*
X93320506Y-95922258D01*
X91620837Y-97621928D01*
X90640000Y-97621928D01*
X90515518Y-97634188D01*
X90395820Y-97670498D01*
X90285506Y-97729463D01*
X90188815Y-97808815D01*
X90109463Y-97905506D01*
X90050498Y-98015820D01*
X90014188Y-98135518D01*
X90001928Y-98260000D01*
X90001928Y-99860000D01*
X90014188Y-99984482D01*
X90050498Y-100104180D01*
X90109463Y-100214494D01*
X90188815Y-100311185D01*
X90285506Y-100390537D01*
X90395820Y-100449502D01*
X90515518Y-100485812D01*
X90523961Y-100486643D01*
X90325363Y-100685241D01*
X90168320Y-100920273D01*
X90060147Y-101181426D01*
X90005000Y-101458665D01*
X90005000Y-101741335D01*
X90060147Y-102018574D01*
X90168320Y-102279727D01*
X90325363Y-102514759D01*
X90525241Y-102714637D01*
X90757759Y-102870000D01*
X90525241Y-103025363D01*
X90325363Y-103225241D01*
X90168320Y-103460273D01*
X90060147Y-103721426D01*
X90006841Y-103989408D01*
X89904291Y-103905247D01*
X89749851Y-103822697D01*
X89582274Y-103771864D01*
X89451667Y-103759000D01*
X89451660Y-103759000D01*
X89408000Y-103754700D01*
X89364340Y-103759000D01*
X86220236Y-103759000D01*
X85217000Y-102755765D01*
X85217000Y-102557107D01*
X85413368Y-102753475D01*
X85656589Y-102915990D01*
X85926842Y-103027932D01*
X86213740Y-103085000D01*
X86506260Y-103085000D01*
X86793158Y-103027932D01*
X87063411Y-102915990D01*
X87306632Y-102753475D01*
X87513475Y-102546632D01*
X87675990Y-102303411D01*
X87787932Y-102033158D01*
X87845000Y-101746260D01*
X87845000Y-101453740D01*
X87787932Y-101166842D01*
X87675990Y-100896589D01*
X87513475Y-100653368D01*
X87306632Y-100446525D01*
X87132240Y-100330000D01*
X87306632Y-100213475D01*
X87513475Y-100006632D01*
X87675990Y-99763411D01*
X87787932Y-99493158D01*
X87845000Y-99206260D01*
X87845000Y-98913740D01*
X87787932Y-98626842D01*
X87675990Y-98356589D01*
X87513475Y-98113368D01*
X87381620Y-97981513D01*
X87454180Y-97959502D01*
X87564494Y-97900537D01*
X87661185Y-97821185D01*
X87740537Y-97724494D01*
X87799502Y-97614180D01*
X87835812Y-97494482D01*
X87848072Y-97370000D01*
X87845000Y-96805750D01*
X87686250Y-96647000D01*
X86487000Y-96647000D01*
X86487000Y-96667000D01*
X86233000Y-96667000D01*
X86233000Y-96647000D01*
X85033750Y-96647000D01*
X84875000Y-96805750D01*
X84871928Y-97370000D01*
X84884188Y-97494482D01*
X84920498Y-97614180D01*
X84979463Y-97724494D01*
X85058815Y-97821185D01*
X85155506Y-97900537D01*
X85265820Y-97959502D01*
X85338380Y-97981513D01*
X85206525Y-98113368D01*
X85044010Y-98356589D01*
X84932068Y-98626842D01*
X84875000Y-98913740D01*
X84875000Y-99206260D01*
X84888523Y-99274242D01*
X83730264Y-100432501D01*
X83696341Y-100460341D01*
X83585247Y-100595710D01*
X83502697Y-100750150D01*
X83451864Y-100917727D01*
X83439000Y-101048334D01*
X83439000Y-101048340D01*
X83434700Y-101092000D01*
X83439000Y-101135660D01*
X83439001Y-103080330D01*
X83434700Y-103124000D01*
X83451864Y-103298274D01*
X83502698Y-103465852D01*
X83585248Y-103620291D01*
X83668248Y-103721426D01*
X83696342Y-103755659D01*
X83730259Y-103783494D01*
X85192504Y-105245740D01*
X85220341Y-105279659D01*
X85355709Y-105390753D01*
X85510149Y-105473303D01*
X85576058Y-105493296D01*
X85601556Y-105501031D01*
X85546903Y-105687298D01*
X86360000Y-106500395D01*
X87173097Y-105687298D01*
X87128998Y-105537000D01*
X89039765Y-105537000D01*
X90011044Y-106508280D01*
X90005000Y-106538665D01*
X90005000Y-106821335D01*
X90060147Y-107098574D01*
X90168320Y-107359727D01*
X90325363Y-107594759D01*
X90525241Y-107794637D01*
X90757759Y-107950000D01*
X90525241Y-108105363D01*
X90325363Y-108305241D01*
X90168320Y-108540273D01*
X90060147Y-108801426D01*
X90005000Y-109078665D01*
X90005000Y-109361335D01*
X90060147Y-109638574D01*
X90168320Y-109899727D01*
X90325363Y-110134759D01*
X90525241Y-110334637D01*
X90757759Y-110490000D01*
X90525241Y-110645363D01*
X90325363Y-110845241D01*
X90168320Y-111080273D01*
X90060147Y-111341426D01*
X90005000Y-111618665D01*
X90005000Y-111901335D01*
X90060147Y-112178574D01*
X90168320Y-112439727D01*
X90325363Y-112674759D01*
X90525241Y-112874637D01*
X90757759Y-113030000D01*
X90525241Y-113185363D01*
X90325363Y-113385241D01*
X90168320Y-113620273D01*
X90060147Y-113881426D01*
X90005000Y-114158665D01*
X90005000Y-114441335D01*
X90060147Y-114718574D01*
X90168320Y-114979727D01*
X90325363Y-115214759D01*
X90525241Y-115414637D01*
X90760273Y-115571680D01*
X90770865Y-115576067D01*
X90584869Y-115687615D01*
X90376481Y-115876586D01*
X90208963Y-116102580D01*
X90088754Y-116356913D01*
X90048096Y-116490961D01*
X90170084Y-116712998D01*
X90030234Y-116712998D01*
X87249000Y-113931765D01*
X87249000Y-113009685D01*
X87435799Y-112822886D01*
X87587371Y-112596043D01*
X87691775Y-112343989D01*
X87745000Y-112076411D01*
X87745000Y-111803589D01*
X87691775Y-111536011D01*
X87587371Y-111283957D01*
X87435799Y-111057114D01*
X87242886Y-110864201D01*
X87016043Y-110712629D01*
X86763989Y-110608225D01*
X86496411Y-110555000D01*
X86232236Y-110555000D01*
X84749000Y-109071765D01*
X84749000Y-107811849D01*
X84774759Y-107794637D01*
X84896694Y-107672702D01*
X85546903Y-107672702D01*
X85618486Y-107916671D01*
X85873996Y-108037571D01*
X86148184Y-108106300D01*
X86430512Y-108120217D01*
X86710130Y-108078787D01*
X86976292Y-107983603D01*
X87101514Y-107916671D01*
X87173097Y-107672702D01*
X86360000Y-106859605D01*
X85546903Y-107672702D01*
X84896694Y-107672702D01*
X84974637Y-107594759D01*
X85108692Y-107394131D01*
X85123329Y-107421514D01*
X85367298Y-107493097D01*
X86180395Y-106680000D01*
X86539605Y-106680000D01*
X87352702Y-107493097D01*
X87596671Y-107421514D01*
X87717571Y-107166004D01*
X87786300Y-106891816D01*
X87800217Y-106609488D01*
X87758787Y-106329870D01*
X87663603Y-106063708D01*
X87596671Y-105938486D01*
X87352702Y-105866903D01*
X86539605Y-106680000D01*
X86180395Y-106680000D01*
X85367298Y-105866903D01*
X85123329Y-105938486D01*
X85109676Y-105967341D01*
X84974637Y-105765241D01*
X84774759Y-105565363D01*
X84539727Y-105408320D01*
X84278574Y-105300147D01*
X84001335Y-105245000D01*
X83718665Y-105245000D01*
X83441426Y-105300147D01*
X83180273Y-105408320D01*
X82945241Y-105565363D01*
X82745363Y-105765241D01*
X82588320Y-106000273D01*
X82480147Y-106261426D01*
X82425000Y-106538665D01*
X82425000Y-106821335D01*
X82480147Y-107098574D01*
X82588320Y-107359727D01*
X82745363Y-107594759D01*
X82945241Y-107794637D01*
X82971000Y-107811849D01*
X82971001Y-109396330D01*
X82966700Y-109440000D01*
X82983864Y-109614274D01*
X83034698Y-109781852D01*
X83097704Y-109899727D01*
X83117248Y-109936291D01*
X83228342Y-110071659D01*
X83262259Y-110099494D01*
X84975000Y-111812236D01*
X84975000Y-112076411D01*
X85028225Y-112343989D01*
X85132629Y-112596043D01*
X85284201Y-112822886D01*
X85471000Y-113009685D01*
X85471001Y-114256330D01*
X85466700Y-114300000D01*
X85483864Y-114474274D01*
X85534698Y-114641852D01*
X85610190Y-114783087D01*
X85617248Y-114796291D01*
X85728342Y-114931659D01*
X85762259Y-114959494D01*
X86257765Y-115455000D01*
X86223589Y-115455000D01*
X85956011Y-115508225D01*
X85703957Y-115612629D01*
X85477114Y-115764201D01*
X85284201Y-115957114D01*
X85132629Y-116183957D01*
X85028225Y-116436011D01*
X84975000Y-116703589D01*
X84975000Y-116967764D01*
X83222262Y-118720503D01*
X83188341Y-118748341D01*
X83160505Y-118782260D01*
X83077248Y-118883709D01*
X82994698Y-119038148D01*
X82943864Y-119205726D01*
X82926700Y-119380000D01*
X82943864Y-119554274D01*
X82971000Y-119643730D01*
X82971001Y-120788151D01*
X82945241Y-120805363D01*
X82745363Y-121005241D01*
X82588320Y-121240273D01*
X82480147Y-121501426D01*
X82425000Y-121778665D01*
X82425000Y-122061335D01*
X82480147Y-122338574D01*
X82588320Y-122599727D01*
X82745363Y-122834759D01*
X82945241Y-123034637D01*
X83180273Y-123191680D01*
X83441426Y-123299853D01*
X83718665Y-123355000D01*
X84001335Y-123355000D01*
X84278574Y-123299853D01*
X84539727Y-123191680D01*
X84774759Y-123034637D01*
X84896694Y-122912702D01*
X85546903Y-122912702D01*
X85618486Y-123156671D01*
X85873996Y-123277571D01*
X86148184Y-123346300D01*
X86430512Y-123360217D01*
X86710130Y-123318787D01*
X86976292Y-123223603D01*
X87101514Y-123156671D01*
X87173097Y-122912702D01*
X86360000Y-122099605D01*
X85546903Y-122912702D01*
X84896694Y-122912702D01*
X84974637Y-122834759D01*
X85108692Y-122634131D01*
X85123329Y-122661514D01*
X85367298Y-122733097D01*
X86180395Y-121920000D01*
X85367298Y-121106903D01*
X85123329Y-121178486D01*
X85109676Y-121207341D01*
X84974637Y-121005241D01*
X84774759Y-120805363D01*
X84749000Y-120788151D01*
X84749000Y-119708235D01*
X85471001Y-118986235D01*
X85471001Y-119336330D01*
X85466700Y-119380000D01*
X85483864Y-119554274D01*
X85534698Y-119721852D01*
X85556079Y-119761852D01*
X85617248Y-119876291D01*
X85728342Y-120011659D01*
X85762259Y-120039494D01*
X86213767Y-120491002D01*
X86009870Y-120521213D01*
X85743708Y-120616397D01*
X85618486Y-120683329D01*
X85546903Y-120927298D01*
X86360000Y-121740395D01*
X86374143Y-121726253D01*
X86553748Y-121905858D01*
X86539605Y-121920000D01*
X87352702Y-122733097D01*
X87596671Y-122661514D01*
X87717571Y-122406004D01*
X87786300Y-122131816D01*
X87789508Y-122066743D01*
X88240506Y-122517742D01*
X88268341Y-122551659D01*
X88403709Y-122662753D01*
X88558149Y-122745303D01*
X88624058Y-122765296D01*
X88725724Y-122796136D01*
X88758924Y-122799406D01*
X88856333Y-122809000D01*
X88856339Y-122809000D01*
X88899999Y-122813300D01*
X88943659Y-122809000D01*
X90308151Y-122809000D01*
X90325363Y-122834759D01*
X90525241Y-123034637D01*
X90757759Y-123190000D01*
X90525241Y-123345363D01*
X90325363Y-123545241D01*
X90168320Y-123780273D01*
X90060147Y-124041426D01*
X90005000Y-124318665D01*
X90005000Y-124601335D01*
X90060147Y-124878574D01*
X90168320Y-125139727D01*
X90325363Y-125374759D01*
X90525241Y-125574637D01*
X90757759Y-125730000D01*
X90525241Y-125885363D01*
X90325363Y-126085241D01*
X90308151Y-126111000D01*
X86728236Y-126111000D01*
X84479499Y-123862264D01*
X84451659Y-123828341D01*
X84316291Y-123717247D01*
X84161851Y-123634697D01*
X83994274Y-123583864D01*
X83863667Y-123571000D01*
X83863660Y-123571000D01*
X83820000Y-123566700D01*
X83776340Y-123571000D01*
X79871849Y-123571000D01*
X79854637Y-123545241D01*
X79654759Y-123345363D01*
X79419727Y-123188320D01*
X79158574Y-123080147D01*
X78881335Y-123025000D01*
X78598665Y-123025000D01*
X78321426Y-123080147D01*
X78060273Y-123188320D01*
X77825241Y-123345363D01*
X77625363Y-123545241D01*
X77468320Y-123780273D01*
X77360147Y-124041426D01*
X77305000Y-124318665D01*
X77305000Y-124601335D01*
X77360147Y-124878574D01*
X77468320Y-125139727D01*
X77625363Y-125374759D01*
X77825241Y-125574637D01*
X78060273Y-125731680D01*
X78321426Y-125839853D01*
X78598665Y-125895000D01*
X78881335Y-125895000D01*
X79158574Y-125839853D01*
X79419727Y-125731680D01*
X79654759Y-125574637D01*
X79854637Y-125374759D01*
X79871849Y-125349000D01*
X83451765Y-125349000D01*
X85700506Y-127597742D01*
X85728341Y-127631659D01*
X85863709Y-127742753D01*
X86018149Y-127825303D01*
X86084058Y-127845296D01*
X86185724Y-127876136D01*
X86218924Y-127879406D01*
X86316333Y-127889000D01*
X86316339Y-127889000D01*
X86359999Y-127893300D01*
X86403659Y-127889000D01*
X90308151Y-127889000D01*
X90325363Y-127914759D01*
X90525241Y-128114637D01*
X90757759Y-128270000D01*
X90525241Y-128425363D01*
X90325363Y-128625241D01*
X90308151Y-128651000D01*
X79108236Y-128651000D01*
X74549000Y-124091765D01*
X74549000Y-119423659D01*
X74553300Y-119379999D01*
X74549000Y-119336334D01*
X74549000Y-119336333D01*
X74536136Y-119205726D01*
X74536136Y-119205724D01*
X74497437Y-119078150D01*
X74485303Y-119038149D01*
X74402753Y-118883709D01*
X74291659Y-118748341D01*
X74257741Y-118720505D01*
X72591477Y-117054242D01*
X72605000Y-116986260D01*
X72605000Y-116693740D01*
X72547932Y-116406842D01*
X72435990Y-116136589D01*
X72273475Y-115893368D01*
X72066632Y-115686525D01*
X71892240Y-115570000D01*
X72066632Y-115453475D01*
X72273475Y-115246632D01*
X72311983Y-115189000D01*
X77608151Y-115189000D01*
X77625363Y-115214759D01*
X77825241Y-115414637D01*
X77851000Y-115431849D01*
X77851001Y-115708151D01*
X77825241Y-115725363D01*
X77625363Y-115925241D01*
X77468320Y-116160273D01*
X77360147Y-116421426D01*
X77305000Y-116698665D01*
X77305000Y-116981335D01*
X77360147Y-117258574D01*
X77468320Y-117519727D01*
X77625363Y-117754759D01*
X77825241Y-117954637D01*
X78060273Y-118111680D01*
X78321426Y-118219853D01*
X78598665Y-118275000D01*
X78881335Y-118275000D01*
X79158574Y-118219853D01*
X79419727Y-118111680D01*
X79654759Y-117954637D01*
X79854637Y-117754759D01*
X80011680Y-117519727D01*
X80119853Y-117258574D01*
X80175000Y-116981335D01*
X80175000Y-116698665D01*
X80119853Y-116421426D01*
X80011680Y-116160273D01*
X79854637Y-115925241D01*
X79654759Y-115725363D01*
X79629000Y-115708151D01*
X79629000Y-115431849D01*
X79654759Y-115414637D01*
X79854637Y-115214759D01*
X80011680Y-114979727D01*
X80119853Y-114718574D01*
X80175000Y-114441335D01*
X80175000Y-114158665D01*
X80119853Y-113881426D01*
X80011680Y-113620273D01*
X79854637Y-113385241D01*
X79654759Y-113185363D01*
X79419727Y-113028320D01*
X79158574Y-112920147D01*
X78881335Y-112865000D01*
X78598665Y-112865000D01*
X78321426Y-112920147D01*
X78060273Y-113028320D01*
X77825241Y-113185363D01*
X77625363Y-113385241D01*
X77608151Y-113411000D01*
X72311983Y-113411000D01*
X72273475Y-113353368D01*
X72141620Y-113221513D01*
X72214180Y-113199502D01*
X72324494Y-113140537D01*
X72421185Y-113061185D01*
X72500537Y-112964494D01*
X72559502Y-112854180D01*
X72595812Y-112734482D01*
X72608072Y-112610000D01*
X72608072Y-110910000D01*
X72595812Y-110785518D01*
X72559502Y-110665820D01*
X72500537Y-110555506D01*
X72421185Y-110458815D01*
X72324494Y-110379463D01*
X72214180Y-110320498D01*
X72094482Y-110284188D01*
X71970000Y-110271928D01*
X70270000Y-110271928D01*
X70145518Y-110284188D01*
X70025820Y-110320498D01*
X69915506Y-110379463D01*
X69818815Y-110458815D01*
X69739463Y-110555506D01*
X69680498Y-110665820D01*
X69644188Y-110785518D01*
X69631928Y-110910000D01*
X66700000Y-110910000D01*
X66700000Y-107029040D01*
X77348091Y-107029040D01*
X77442930Y-107293881D01*
X77587615Y-107535131D01*
X77776586Y-107743519D01*
X78002580Y-107911037D01*
X78256913Y-108031246D01*
X78390961Y-108071904D01*
X78613000Y-107949915D01*
X78613000Y-106807000D01*
X78867000Y-106807000D01*
X78867000Y-107949915D01*
X79089039Y-108071904D01*
X79223087Y-108031246D01*
X79477420Y-107911037D01*
X79703414Y-107743519D01*
X79892385Y-107535131D01*
X80037070Y-107293881D01*
X80131909Y-107029040D01*
X80010624Y-106807000D01*
X78867000Y-106807000D01*
X78613000Y-106807000D01*
X77469376Y-106807000D01*
X77348091Y-107029040D01*
X66700000Y-107029040D01*
X66700000Y-106330960D01*
X77348091Y-106330960D01*
X77469376Y-106553000D01*
X78613000Y-106553000D01*
X78613000Y-105410085D01*
X78867000Y-105410085D01*
X78867000Y-106553000D01*
X80010624Y-106553000D01*
X80131909Y-106330960D01*
X80037070Y-106066119D01*
X79892385Y-105824869D01*
X79703414Y-105616481D01*
X79477420Y-105448963D01*
X79223087Y-105328754D01*
X79089039Y-105288096D01*
X78867000Y-105410085D01*
X78613000Y-105410085D01*
X78390961Y-105288096D01*
X78256913Y-105328754D01*
X78002580Y-105448963D01*
X77776586Y-105616481D01*
X77587615Y-105824869D01*
X77442930Y-106066119D01*
X77348091Y-106330960D01*
X66700000Y-106330960D01*
X66700000Y-93664952D01*
X66746660Y-93777599D01*
X67286735Y-94585879D01*
X67974121Y-95273265D01*
X68782401Y-95813340D01*
X69680514Y-96185350D01*
X70633945Y-96375000D01*
X71606055Y-96375000D01*
X72559486Y-96185350D01*
X73457599Y-95813340D01*
X73672122Y-95670000D01*
X84871928Y-95670000D01*
X84875000Y-96234250D01*
X85033750Y-96393000D01*
X86233000Y-96393000D01*
X86233000Y-95193750D01*
X86487000Y-95193750D01*
X86487000Y-96393000D01*
X87686250Y-96393000D01*
X87845000Y-96234250D01*
X87848072Y-95670000D01*
X87835812Y-95545518D01*
X87799502Y-95425820D01*
X87740537Y-95315506D01*
X87661185Y-95218815D01*
X87564494Y-95139463D01*
X87454180Y-95080498D01*
X87334482Y-95044188D01*
X87210000Y-95031928D01*
X86645750Y-95035000D01*
X86487000Y-95193750D01*
X86233000Y-95193750D01*
X86074250Y-95035000D01*
X85510000Y-95031928D01*
X85385518Y-95044188D01*
X85265820Y-95080498D01*
X85155506Y-95139463D01*
X85058815Y-95218815D01*
X84979463Y-95315506D01*
X84920498Y-95425820D01*
X84884188Y-95545518D01*
X84871928Y-95670000D01*
X73672122Y-95670000D01*
X74265879Y-95273265D01*
X74953265Y-94585879D01*
X75493340Y-93777599D01*
X75865350Y-92879486D01*
X76055000Y-91926055D01*
X76055000Y-90953945D01*
X75865350Y-90000514D01*
X75761584Y-89750000D01*
X92491928Y-89750000D01*
X92504188Y-89874482D01*
X92540498Y-89994180D01*
X92599463Y-90104494D01*
X92678815Y-90201185D01*
X92775506Y-90280537D01*
X92885820Y-90339502D01*
X93005518Y-90375812D01*
X93130000Y-90388072D01*
X93694250Y-90385000D01*
X93853000Y-90226250D01*
X93853000Y-89027000D01*
X92653750Y-89027000D01*
X92495000Y-89185750D01*
X92491928Y-89750000D01*
X75761584Y-89750000D01*
X75493340Y-89102401D01*
X74953265Y-88294121D01*
X74709144Y-88050000D01*
X92491928Y-88050000D01*
X92495000Y-88614250D01*
X92653750Y-88773000D01*
X93853000Y-88773000D01*
X93853000Y-87573750D01*
X94107000Y-87573750D01*
X94107000Y-88773000D01*
X94127000Y-88773000D01*
X94127000Y-89027000D01*
X94107000Y-89027000D01*
X94107000Y-90226250D01*
X94265750Y-90385000D01*
X94830000Y-90388072D01*
X94954482Y-90375812D01*
X95074180Y-90339502D01*
X95184494Y-90280537D01*
X95281185Y-90201185D01*
X95360537Y-90104494D01*
X95419502Y-89994180D01*
X95441513Y-89921620D01*
X95573368Y-90053475D01*
X95816589Y-90215990D01*
X96086842Y-90327932D01*
X96373740Y-90385000D01*
X96666260Y-90385000D01*
X96953158Y-90327932D01*
X97223411Y-90215990D01*
X97466632Y-90053475D01*
X97673475Y-89846632D01*
X97835990Y-89603411D01*
X97947932Y-89333158D01*
X98005000Y-89046260D01*
X98005000Y-88753740D01*
X97947932Y-88466842D01*
X97835990Y-88196589D01*
X97673475Y-87953368D01*
X97466632Y-87746525D01*
X97223411Y-87584010D01*
X96953158Y-87472068D01*
X96666260Y-87415000D01*
X96373740Y-87415000D01*
X96086842Y-87472068D01*
X95816589Y-87584010D01*
X95573368Y-87746525D01*
X95441513Y-87878380D01*
X95419502Y-87805820D01*
X95360537Y-87695506D01*
X95281185Y-87598815D01*
X95184494Y-87519463D01*
X95074180Y-87460498D01*
X94954482Y-87424188D01*
X94830000Y-87411928D01*
X94265750Y-87415000D01*
X94107000Y-87573750D01*
X93853000Y-87573750D01*
X93694250Y-87415000D01*
X93130000Y-87411928D01*
X93005518Y-87424188D01*
X92885820Y-87460498D01*
X92775506Y-87519463D01*
X92678815Y-87598815D01*
X92599463Y-87695506D01*
X92540498Y-87805820D01*
X92504188Y-87925518D01*
X92491928Y-88050000D01*
X74709144Y-88050000D01*
X74265879Y-87606735D01*
X73457599Y-87066660D01*
X73344952Y-87020000D01*
X112075048Y-87020000D01*
X111962401Y-87066660D01*
%TD*%
M02*
